<svg width="1280" height="1031" viewBox="0 0 1280 1031" fill="none" xmlns="http://www.w3.org/2000/svg">
<path d="M789.591 679.19C793.941 680.831 807.841 686.291 820.48 691.341C836.54 697.741 844.401 701.401 846.591 703.501C849.26 706.051 849.821 707.461 850.381 713.001C850.741 716.581 850.63 725.801 850.12 733.501C849.6 741.401 848.501 749.461 847.601 752.001C846.721 754.471 845.051 757.851 843.891 759.501C842.741 761.151 840.601 763.39 839.141 764.49C837.691 765.58 822.331 774.691 805.001 784.721C787.671 794.761 765.401 807.3 755.501 812.601C745.601 817.891 727.831 827.281 716.001 833.461C704.171 839.651 683.701 850.45 670.501 857.48C657.301 864.5 634.131 876.781 619.001 884.761C603.881 892.741 573.051 908.641 550.501 920.091C526.882 932.08 506.962 941.559 503.501 942.45C500.201 943.31 495.031 944 492.001 943.99C488.981 943.98 483.581 943.34 480.001 942.58C476.431 941.82 465.401 937.961 455.501 934.011C445.601 930.061 429.851 923.66 420.501 919.79C411.151 915.92 390.681 907.35 375.001 900.74C359.331 894.14 335.481 884.131 322.001 878.501C308.531 872.881 289.181 864.781 279.001 860.521C268.831 856.251 256.901 851.111 252.501 849.101C247.621 846.861 242.421 843.501 239.181 840.471C236.011 837.511 232.661 833.071 230.921 829.501C229.301 826.201 227.48 821.021 226.86 818.001C226.17 814.611 225.93 806.541 226.24 797.001C226.57 786.742 227.23 780.321 228.2 778.001C229 776.081 231.42 773.04 233.58 771.24C235.73 769.45 246.281 763.491 257.001 758.001C267.731 752.501 284.151 743.97 293.501 739.04C302.851 734.12 311.181 730.06 312.001 730.04C312.831 730.011 315.412 732.473 322.001 741.001L313.751 745.391C309.211 747.811 295.381 754.821 283.001 760.971C270.631 767.13 256.792 774.26 252.251 776.83C247.721 779.4 244.011 781.841 244.001 782.251C244.002 782.662 245.912 784.311 248.251 785.9C250.591 787.5 258.581 791.75 266.001 795.36C273.431 798.96 288.051 805.58 298.501 810.07C308.951 814.55 332.581 824.501 351.001 832.181C369.431 839.861 397.331 851.311 413.001 857.641C428.681 863.971 450.501 872.581 481.501 884.431L502.501 884.421L544.001 863.751C566.831 852.391 594.501 838.43 605.501 832.73C616.501 827.04 636.981 816.39 651.001 809.07C665.031 801.75 692.921 787.211 713.001 776.761C733.081 766.321 751.301 756.76 753.501 755.521C755.702 754.28 773.252 745.26 792.501 735.48C811.751 725.691 828.741 716.851 830.251 715.841C831.76 714.831 833.019 713.661 833.04 713.251C833.06 712.841 830.47 711.29 827.29 709.82C824.1 708.35 814.3 704.441 805.501 701.131C796.701 697.831 787.811 694.421 782.001 692.001L781.841 684.11L781.69 676.211L789.591 679.19ZM835 725.07C834.72 725.11 832.7 726.5 830.5 728.16C828.3 729.83 822.45 733.56 817.5 736.47C812.55 739.37 802.42 744.89 795 748.74C787.57 752.6 766.87 763.28 749 772.5C731.12 781.71 711.1 792.06 704.5 795.5C697.9 798.94 682.6 806.93 670.5 813.24C658.4 819.55 634.77 831.82 618 840.51C601.22 849.2 574.9 862.92 559.5 871.01C544.1 879.1 525.26 888.82 517.64 892.61C503.95 899.42 503.68 899.5 494.64 899.83C489.61 900.02 483.47 899.65 481 899.01C478.52 898.37 473.57 896.69 470 895.28C466.42 893.86 448.65 886.63 430.5 879.22C412.35 871.8 391.2 863.14 383.5 859.97C375.8 856.8 359.15 849.94 346.5 844.72C333.85 839.51 316.52 832.31 308 828.74C299.47 825.17 287.32 819.89 281 817C274.67 814.12 266.12 810.06 262 807.99C257.87 805.92 251.46 802.15 247.75 799.61L241 795C241.03 810.889 241.59 817.249 242.27 819.39C242.939 821.539 244.879 824.91 246.569 826.89C248.259 828.88 251.179 831.48 253.069 832.67C254.959 833.86 269.55 840.32 285.5 847.01C301.45 853.7 333.85 867.28 357.5 877.2C381.15 887.11 407.7 898.28 416.5 902.01C425.3 905.73 442.62 912.85 455 917.81C467.37 922.78 480.42 927.37 484 928.01C487.94 928.72 493.06 928.89 497 928.45C502.71 927.82 506.96 925.97 532 913.22C547.67 905.25 571.3 893.09 584.5 886.21C597.7 879.34 617.72 868.89 629 862.99C640.27 857.09 663.45 844.96 680.5 836.03C697.55 827.09 713.75 818.53 716.5 817C719.25 815.47 733.42 808.03 748 800.47C762.57 792.9 780.8 783.11 788.5 778.7C796.2 774.29 807.9 767.1 814.5 762.71C821.1 758.33 827.78 753.56 829.34 752.12C830.9 750.68 832.66 748.6 833.26 747.5C833.86 746.4 834.61 740.89 834.93 735.25C835.24 729.611 835.27 725.033 835 725.07ZM344.001 666.011C345.382 666.001 351.902 668.28 358.501 671.08C365.101 673.88 392.101 684.861 418.501 695.461C444.901 706.071 470.211 716.61 474.751 718.87C482.331 722.67 483.001 723.241 483.001 726.001C483.001 728.471 483.491 729.101 485.751 729.561C487.261 729.871 490.921 731.551 493.881 733.311C497.761 735.621 504.001 741.851 516.381 755.811C525.791 766.431 538.561 781.171 544.751 788.561C550.941 795.95 556.001 802.671 556.001 803.501C556.001 804.331 555.441 806.171 554.751 807.601C554.061 809.041 549.671 813.231 545.001 816.931C540.331 820.621 534.251 825.16 531.501 827.021C527.901 829.46 525.101 830.51 521.501 830.79C517.671 831.08 514.511 830.431 508.001 828.001C503.321 826.251 493.431 822.661 486.001 820.021C478.571 817.381 464.631 812.081 455.001 808.251C445.381 804.411 430.521 798.33 422.001 794.74C413.481 791.14 397.051 784.071 385.501 779.011C373.951 773.961 362.951 768.85 361.061 767.66C359.16 766.47 353.571 760.101 348.631 753.501C343.691 746.901 334.44 735.091 328.07 727.251C321.711 719.411 315.021 710.862 313.211 708.251C311.281 705.461 309.921 702.261 309.921 700.501C309.921 698.501 311.351 695.644 314.211 691.931C316.571 688.861 321.881 682.621 326.001 678.051C330.401 673.181 335.151 668.981 337.501 667.891C339.701 666.881 342.631 666.031 344.001 666.011ZM940.501 141.41C943.251 142.75 947.271 145.801 949.44 148.171C951.61 150.551 954.29 154.52 955.41 157C956.97 160.47 957.531 164.24 957.841 173.5C958.161 182.64 957.88 186.69 956.66 190.5C955.78 193.25 953.7 197.41 952.03 199.75C950.36 202.09 946.89 205.46 939.641 210.5L940.29 225.5C940.65 233.75 941.62 244.55 942.44 249.5C943.25 254.45 945.091 262.55 946.521 267.5C947.95 272.45 950.891 280.55 953.061 285.5C955.221 290.45 960.661 300.57 965.141 308C969.621 315.43 976.671 327.12 980.811 334C984.94 340.87 990.94 351.9 994.12 358.5C997.31 365.1 1001.48 375.23 1003.39 381C1005.3 386.77 1007.55 394.871 1008.4 399.001C1009.24 403.121 1010.41 411.901 1011.01 418.501C1011.75 426.703 1011.98 481.893 1011.75 593.001C1011.44 745.06 1011.3 755.951 1009.63 762.501C1008.65 766.351 1005.87 773.551 1003.46 778.501C1001.04 783.451 997.14 789.771 994.79 792.551C992.43 795.331 987.92 799.831 984.771 802.551C981.62 805.271 976.44 808.971 973.271 810.761C970.1 812.551 963.901 815.251 951.501 819.501L866.001 819.761C782.901 820.021 780.581 819.981 783.501 818.211C785.151 817.201 791.901 813.491 810.501 803.501L947.501 802.48L955.001 799.73C959.121 798.21 965.61 794.84 969.41 792.24C973.21 789.63 978.06 785.481 980.19 783.001C982.32 780.521 985.781 775.121 987.881 771.001C989.981 766.871 992.23 761.021 992.87 758.001C993.74 753.891 993.96 709.191 993.45 410.501L990.841 400.001C989.401 394.231 986.571 385.23 984.561 380C982.54 374.77 978.081 365.1 974.641 358.5C971.201 351.9 963.711 339.07 958.001 330C952.291 320.93 944.86 308.1 941.48 301.5C938.11 294.9 933.711 284.55 931.711 278.5C929.711 272.45 927.13 263 925.98 257.5C924.601 250.91 923.651 241.44 922.501 211.98L793.011 212.5L792.49 226.5C792.2 234.2 791.261 245.22 790.391 251C789.531 256.77 787.711 265.32 786.351 270C785.001 274.68 782.081 283 779.881 288.5C777.671 294 773.581 302.55 770.801 307.5C768.011 312.45 762.351 321.9 758.221 328.5C754.091 335.1 748.17 345 745.07 350.5C741.96 356 738.151 363.2 736.601 366.5C735.051 369.8 732.531 375.65 731.011 379.5C729.481 383.35 727.061 391.231 725.641 397.001C724.221 402.771 722.59 412.231 722.021 418.001C721.451 423.812 720.99 452.972 720.99 483.251C721 513.351 720.661 537.984 720.251 538.001C719.841 538.001 716.011 536.871 704.001 533.001L704.32 470.751C704.62 411.442 704.741 408.051 706.771 399.001C707.951 393.771 710.33 385.45 712.07 380.5C713.81 375.55 717.241 367 719.681 361.5C722.121 356 726.431 347.45 729.251 342.5C732.071 337.55 738.74 326.52 744.08 318C749.41 309.48 756.03 298 758.78 292.5C761.53 287 765.14 278.68 766.79 274C768.45 269.32 770.781 260.55 771.98 254.5C773.39 247.4 774.4 237.44 774.83 226.391C775.48 209.852 775.431 209.27 773.501 208.7C772.401 208.38 769.341 205.96 766.711 203.311C763.621 200.221 761.18 196.54 759.87 193C758.1 188.22 757.881 185.66 758.171 173.5C758.481 160.51 758.691 159.18 761.131 155C762.581 152.53 765.731 148.73 768.131 146.561C770.531 144.401 774.301 141.821 776.501 140.841C780.231 139.161 785.694 139.04 935.501 138.98L940.501 141.41ZM597.221 520.2C600.911 519.8 606.541 519.8 609.721 520.19C612.901 520.58 618.871 522.111 623.001 523.591C627.123 525.061 656.152 534.891 687.501 545.41C718.851 555.94 746.981 565.741 750.001 567.181C753.021 568.631 757.641 571.881 760.251 574.4C763.911 577.94 765.381 580.321 766.641 584.751C768.101 589.901 768.2 596.232 767.58 645.501C767.2 675.751 766.601 702.081 766.251 704.001C765.861 706.181 764.18 708.921 761.811 711.251C758.96 714.061 743.579 722.171 700.751 743.45C669.261 759.11 632.481 777.55 619.001 784.44C605.521 791.33 592.811 797.201 587.001 798.001L587.751 793.251C588.161 790.641 588.47 768.921 588.44 745.001C588.41 721.081 587.84 693.961 587.19 684.751C586.53 675.542 585.39 666.542 584.65 664.751C583.91 662.961 581.54 659.781 579.4 657.671C577.25 655.571 573.701 652.92 571.501 651.79C569.301 650.66 558.731 646.361 548.001 642.251C537.271 638.141 513.201 629.471 494.501 622.971C475.802 616.481 456.452 609.941 451.501 608.431C446.361 606.871 439.911 605.661 436.461 605.601C432.151 605.531 429.581 606.031 427.461 607.381C424.631 609.171 424.591 609.301 426.501 610.301C427.602 610.871 433.672 613.241 440.001 615.551C446.321 617.871 461.401 623.24 473.501 627.49C485.601 631.73 509.231 640.28 526.001 646.49C542.771 652.69 558.981 658.88 562.001 660.23C565.021 661.581 568.961 663.881 570.751 665.341C572.721 666.951 574.371 669.481 574.931 671.751C575.441 673.815 576.011 701.153 576.181 732.501C576.431 776.141 576.211 790.381 575.251 793.251C574.121 796.63 573.731 796.94 571.251 796.4C569.741 796.08 566.701 793.92 564.501 791.62C562.301 789.32 554.421 780.03 547.001 770.98C539.581 761.941 528.571 748.911 522.551 742.021C516.531 735.131 509.781 727.771 507.551 725.65C505.321 723.53 499.901 719.09 495.501 715.78C491.101 712.48 485.701 708.831 483.501 707.681C481.301 706.531 464.43 699.491 412.521 678.501L411.82 674.501C411.43 672.301 411.091 661.051 411.061 649.501C411.021 637.951 411.46 624.671 412.03 620.001C412.64 615.051 414.07 609.411 415.45 606.501C416.76 603.751 419.33 600.331 421.16 598.891C423 597.461 426.301 595.381 428.501 594.261C430.701 593.141 439.481 589.44 448.001 586.03C456.521 582.61 469.571 577.201 477.001 574.001C484.421 570.791 502.651 562.461 517.501 555.471C532.351 548.481 546.521 541.89 549.001 540.82C551.482 539.75 561.832 534.84 572.001 529.91C587.461 522.41 591.601 520.81 597.221 520.2ZM478.25 733.021C477.84 733.031 475.5 733.87 473.06 734.89C469.74 736.26 467.45 738.34 463.96 743.11C461.39 746.63 458.77 750.51 458.14 751.75C457.26 753.48 457.31 754.75 458.35 757.25C459.09 759.04 462.999 764.1 467.029 768.5C471.059 772.9 477.99 780.24 482.43 784.82C486.87 789.39 491.4 793.64 492.5 794.26C494.21 795.22 494.08 794.68 491.59 790.44C489.99 787.72 487.46 783.7 485.97 781.5C484.47 779.3 480.06 773.67 476.16 769C472.26 764.33 467.93 758.36 466.54 755.75C465.14 753.141 464.111 750.831 464.25 750.61C464.39 750.4 468.1 747.68 472.5 744.56C476.9 741.45 481.29 738.7 482.25 738.45C483.21 738.2 484 737.33 484 736.5C484 735.67 482.87 734.55 481.5 734C480.12 733.45 478.66 733.011 478.25 733.021ZM868.351 719.511C868.351 715.074 868.485 713.168 868.665 714.801C868.784 716.975 868.755 720.882 868.602 725.303C868.449 725.728 868.343 723.494 868.351 719.511ZM743.75 580.11C741.41 580.18 737.92 580.53 736 580.89C734.07 581.25 721.02 587.35 707 594.43C692.97 601.51 673.17 611.78 663 617.25C652.82 622.72 641.24 629.179 637.25 631.6C633.26 634.02 630 636.45 630 637C630 637.64 631.16 637.68 633.25 637.12C635.04 636.63 637.62 635.79 639 635.24C640.371 634.69 652.07 629.66 665 624.05C677.92 618.44 697.05 609.72 707.5 604.69C717.95 599.65 729.65 593.83 733.5 591.75C737.35 589.68 742.19 586.64 744.25 584.99C746.31 583.35 748 581.55 748 581C748 580.45 746.09 580.05 743.75 580.11ZM932 156C790.984 156 785.24 156.13 782.08 157.75C780.21 158.71 777.84 161.07 776.83 163C775.45 165.63 774.99 168.69 775 175.25C775 181.54 775.49 185.01 776.75 187.6C777.71 189.58 779.62 191.94 781 192.85C783.26 194.34 790.59 194.53 856.5 194.77C913.86 194.99 930.12 194.77 932.41 193.77C934.01 193.069 936.42 191.15 937.76 189.5C940.1 186.63 940.19 185.99 939.85 174.67L939.5 162.84L932 156Z" fill="#CBA361"/>
</svg>
