<svg width="1280" height="1031" viewBox="0 0 1280 1031" fill="none" xmlns="http://www.w3.org/2000/svg">
<path fill-rule="evenodd" clip-rule="evenodd" d="M650.52 228.95C645.67 233.89 641.76 238.51 641.83 239.22C641.91 239.92 642.99 239.14 644.23 237.47C645.48 235.81 649.54 231.31 653.26 227.47C656.99 223.64 659.87 220.38 659.68 220.24C659.49 220.09 655.37 224.02 650.52 228.95ZM622.41 264.97C619.8 268.8 617.74 272.29 617.83 272.72C617.92 273.15 619.5 271.25 621.33 268.5C623.17 265.75 625.43 262.26 626.35 260.75C627.28 259.24 627.84 258 627.59 258C627.35 258 625.02 261.14 622.41 264.97ZM519.5 311.1C513.45 312.16 504.68 314.2 500 315.62C495.33 317.04 486.1 320.45 479.5 323.18C472.9 325.92 462.33 330.87 456 334.17C449.68 337.48 439.77 343.35 434 347.22C428.23 351.09 419.9 357.3 415.5 361.02C411.1 364.75 403.44 372 398.47 377.14C393.5 382.29 386.7 390.1 383.36 394.5C380.02 398.9 375.25 405.65 372.77 409.5C370.28 413.35 366.39 420.21 364.13 424.75C361.86 429.29 358.2 438.4 356 445C353.8 451.6 351.5 460.49 350.89 464.75C350.08 470.42 350.08 473.1 350.89 474.75C351.99 476.97 352.07 476.94 357.25 472.2C360.14 469.56 364.98 465.54 368 463.27C371.02 461 382.05 454.89 392.5 449.71C402.95 444.52 418.02 437.19 426 433.42C433.98 429.65 454.23 419.63 471 411.15C487.77 402.68 507.58 393.08 515 389.81C522.42 386.55 532.55 381.59 537.5 378.8C542.45 376 549.2 371.65 552.5 369.12C555.8 366.6 561.2 362.3 564.5 359.57C567.8 356.84 571.36 353.91 572.42 353.05C574.06 351.73 574.22 351.72 573.49 353C573.02 353.82 571.48 356.07 570.07 358C568.66 359.92 563.23 366.9 558 373.5C552.77 380.1 545.17 390.23 541.1 396C537.03 401.78 530.06 411.64 525.6 417.91C521.15 424.19 517.61 429.71 517.75 430.16C517.89 430.62 517.55 430.77 517 430.5C516.45 430.23 515.46 431.01 514.81 432.25C514.15 433.49 510.69 438.1 507.13 442.5C503.57 446.9 496.57 455.4 491.57 461.4C486.58 467.39 482.61 472.68 482.75 473.15C482.89 473.62 482.66 473.89 482.23 473.75C481.81 473.61 477.83 477.55 473.39 482.5C468.95 487.451 464.57 492.06 463.66 492.75C462.75 493.44 462.3 494.56 462.66 495.25C463.02 495.94 463.01 496.27 462.63 496C462.26 495.73 452.78 504.73 441.58 516C430.38 527.27 419.1 538.98 416.53 542C413.95 545.02 411.2 548.74 410.42 550.25C409.03 552.94 409.08 553.04 412.75 554.74C415.91 556.2 419.54 556.47 436 556.44C452.57 556.41 456.85 556.07 464.5 554.211C469.45 553.01 476.11 551.23 479.3 550.26C482.5 549.29 485.08 548.16 485.05 547.75C485.02 547.34 485 543.63 485 539.5C485 532.77 484.82 532.07 483.25 532.66C482.29 533.02 477.45 534.75 472.5 536.51C467.55 538.28 461.02 539.991 458 540.331C453.5 540.831 452.95 540.741 455 539.841C456.38 539.231 461.33 536.96 466 534.79C470.68 532.62 477.09 529.31 480.25 527.42C485.78 524.13 486.08 523.74 487.97 517.25C489.05 513.54 491.64 507.62 493.72 504.1C495.8 500.581 499.98 495.1 503 491.94C506.02 488.77 511.88 483.99 516 481.31C520.13 478.63 526.88 475.2 531 473.7C535.13 472.19 541.65 470.28 545.5 469.45C549.38 468.61 560.29 467.7 570 467.41C579.63 467.12 588.4 466.72 589.5 466.52C590.6 466.32 592.74 464.55 594.25 462.58C596.8 459.26 597.04 458.12 597.6 446.75C597.93 440.01 599.04 431.13 600.08 427C601.11 422.88 604.11 415.23 606.73 410C609.35 404.77 613.84 397.57 616.7 394C621.55 387.93 621.94 387.04 622.54 380.5C622.98 375.59 622.69 371.41 621.55 366.5C620.66 362.65 617.96 355.45 615.54 350.5C613.12 345.55 608.75 338.71 605.82 335.31C602.9 331.9 598.25 327.35 595.5 325.19C592.75 323.03 588.25 320.14 585.5 318.77C582.75 317.4 577.58 315.33 574 314.18C570.42 313.03 563.45 311.39 558.5 310.54C553.55 309.7 545.23 309.04 540 309.08C534.77 309.13 525.55 310.03 519.5 311.1ZM724 360.12C718.23 360.58 707.88 362.14 701 363.57C694.13 365 684.9 367.32 680.5 368.71C676.1 370.1 668.23 373.23 663 375.68C657.77 378.13 650.8 381.96 647.5 384.2C644.2 386.44 639.06 390.35 636.09 392.89C633.11 395.42 628.77 399.98 626.44 403C624.11 406.02 620.8 411.31 619.1 414.75C617.39 418.19 614.88 425.16 613.5 430.25C611.7 436.93 611.01 442 611.02 448.5C611.03 453.68 611.77 460.41 612.77 464.37C613.72 468.14 615.17 471.59 616 472.03C616.83 472.47 623.8 474.42 631.5 476.37C639.2 478.31 653.83 482.371 664 485.391C674.17 488.41 686.33 492.391 691 494.23C695.67 496.07 702.42 499.201 706 501.19C709.58 503.171 716.1 507.461 720.5 510.73C724.9 513.991 731.44 519.781 735.02 523.581C738.61 527.391 743.38 533.201 745.63 536.5C747.87 539.8 750.41 543.85 751.25 545.5C752.1 547.15 753.41 551.32 754.15 554.771L755.5 561.04C784.07 561.01 792.68 560.41 801.5 559C808.38 557.9 818.39 555.88 823.75 554.5C829.11 553.13 836.31 550.88 839.75 549.5C844.08 547.77 845.77 546.62 845.25 545.76C844.756 544.94 844.923 544.774 845.75 545.26C846.46 545.681 850.14 544.43 854.25 542.37C858.24 540.38 865.77 535.891 871 532.401C876.23 528.911 881.74 524.911 883.25 523.531C884.76 522.141 886 520.55 886 520C886 519.451 884.09 517.611 881.75 515.901C879.41 514.201 873.23 510.65 868 508.02C862.77 505.38 847.7 498.94 834.5 493.71C821.3 488.48 802.4 481.3 792.5 477.75C782.6 474.2 763.02 467.42 749 462.69C734.98 457.96 716.86 452.05 708.75 449.55C700.64 447.05 686.01 443 676.25 440.56C666.49 438.12 656.7 435.45 654.5 434.63C650.58 433.17 650.75 433.14 663 433.02C669.88 432.96 681.13 432.51 688 432.03C694.88 431.56 708.38 430.46 718 429.6C732.39 428.31 748.22 428.09 807 428.35C876.36 428.66 878.77 428.73 887.5 430.84C892.45 432.03 896.73 433 897 432.99C897.27 432.98 898.11 432.64 898.87 432.23C899.95 431.65 899.53 430.15 896.87 425.05C894.93 421.34 890.53 415.56 886.5 411.45C882.65 407.52 876.13 401.82 872 398.79C867.88 395.76 860.45 390.96 855.5 388.13C850.55 385.29 841.77 380.91 836 378.38C830.23 375.85 820.1 371.98 813.5 369.78C806.9 367.57 796.33 364.71 790 363.41C783.67 362.11 773.33 360.59 767 360.03C760.67 359.47 750.77 359.08 745 359.15C739.23 359.22 729.77 359.66 724 360.12ZM557 480.66C555.08 480.891 549.67 482.021 545 483.171C540.33 484.311 534.02 486.36 531 487.71C527.98 489.07 523.02 492.1 520 494.44C516.98 496.79 513.13 500.23 511.47 502.1C509.8 503.97 507.23 507.52 505.76 510C504.29 512.48 502.16 517.201 501.03 520.5C499.89 523.8 499.02 527.63 499.09 529C499.17 530.82 499.46 530.421 500.15 527.5C500.67 525.3 503.32 520.24 506.05 516.25C508.77 512.26 510.44 509.26 509.75 509.57C509.06 509.891 509.85 508.99 511.5 507.58C513.15 506.17 514.84 505.01 515.25 505C515.66 505 516 504.32 516 503.5C516 502.68 516.67 501.77 517.5 501.5C518.5 501.167 518.753 501.417 518.26 502.25C517.773 503.077 517.94 503.244 518.76 502.75C519.44 502.34 519.83 501.44 519.63 500.75C519.37 499.87 520.41 499.57 523.13 499.75C526.06 499.94 526.88 500.36 526.5 501.5C526.2 502.391 526.61 503 527.5 503C528.33 503 529.24 502.44 529.52 501.75C529.83 501.01 531.37 500.63 533.27 500.82C535.14 501.01 536.02 500.801 535.35 500.32C534.72 499.87 538.41 499.5 543.55 499.5C549.74 499.5 553.33 499.93 554.2 500.77C554.91 501.46 556.06 502.03 556.75 502.02C557.44 502.01 557.77 501.55 557.5 501C557.23 500.451 557.45 500 558 500C558.55 500 561.59 501.32 564.75 502.93C567.91 504.54 573.42 506.8 577 507.94C580.58 509.081 584.85 510.01 586.5 509.99C588.15 509.98 590.08 510.54 590.8 511.23C591.58 511.991 594.08 512.4 597.05 512.25C600.64 512.07 601.79 512.32 601.25 513.17C600.71 514.02 601.34 514.18 603.5 513.74C605.15 513.4 608.52 512.87 611 512.55C613.48 512.22 617.3 511.73 619.5 511.44C621.7 511.15 623.73 510.551 624 510.1C624.27 509.65 625.85 508.551 627.5 507.66C629.15 506.77 631.29 505.36 632.25 504.52C633.31 503.6 633.71 502.45 633.25 501.58C632.84 500.81 630.7 498.77 628.5 497.06L624.5 493.96C633.02 494.48 636.63 494.22 638 493.72C640.26 492.9 640.35 492.96 639 494.38C637.65 495.801 637.77 495.94 640.15 495.73C641.61 495.6 642.63 495.16 642.4 494.75C642.18 494.34 642.34 493.98 642.75 493.96C643.16 493.93 644.17 494.63 645 495.5C646.33 496.91 646.33 497.08 645 497.05C644.17 497.03 644.85 497.72 646.5 498.6C648.15 499.47 652.65 500.56 656.5 501.02C660.35 501.48 666.65 502.99 670.5 504.37C675.38 506.12 676.74 506.93 675 507.06C673.63 507.16 672.05 507.15 671.5 507.05C670.833 506.924 670.833 507.217 671.5 507.93C672.21 508.69 673.89 508.56 677.25 507.5C679.86 506.68 681.77 506.451 681.5 507C681.23 507.55 681.45 508 682 508C682.55 508 683 508.68 683 509.5C683.006 510.494 683.756 510.874 685.25 510.641C686.49 510.451 688.4 510.891 689.5 511.63C690.6 512.37 691.17 513.32 690.76 513.74C690.35 514.16 688.55 513.861 686.76 513.081C684.97 512.29 682.71 510.83 681.75 509.83C680.79 508.82 679.66 508.03 679.25 508.07C678.84 508.111 677.6 508.53 676.5 509C674.59 509.82 674.6 509.86 676.75 509.93C677.99 509.97 679.34 510.12 679.75 510.28C680.16 510.43 681.85 511.43 683.5 512.5C685.34 513.69 688.43 514.491 691.5 514.57C694.25 514.65 697.17 514.97 698 515.3C698.83 515.63 700.63 516.09 702 516.31C704.05 516.65 703.91 516.75 701.25 516.86C699.46 516.94 697.77 517.451 697.5 518C697.2 518.6 698.29 518.841 700.25 518.591C702.04 518.371 704.02 518.031 704.65 517.841C705.28 517.651 705.85 517.84 705.9 518.25C705.96 518.66 705.66 518.96 705.25 518.91C704.84 518.87 704.19 519.43 703.82 520.16C703.44 520.9 703.33 521.84 703.57 522.25C703.8 522.66 705.46 522.75 707.25 522.44C709.84 521.99 710.2 522.111 709 523.031C707.72 524.021 707.75 524.101 709.25 523.591C710.24 523.261 711.88 523.76 713.01 524.75C714.11 525.71 715 526.951 714.98 527.5C714.96 528.05 715.97 529.53 717.22 530.79C718.48 532.05 720.4 532.95 721.5 532.79C722.92 532.59 723.43 533.01 723.25 534.25C723.11 535.22 724.01 536.54 725.25 537.211C726.49 537.881 727.95 538.47 728.5 538.51C729.05 538.551 729.4 539.02 729.28 539.55C729.15 540.07 730.18 541.63 731.55 543C733.3 544.74 734.04 545.05 734 544C733.97 543.171 732.04 540.08 729.72 537.11C727.4 534.15 723.02 529.611 720 527.031C716.98 524.451 711.8 520.37 708.5 517.97C705.2 515.57 698.45 511.72 693.5 509.421C688.55 507.13 678.88 503.421 672 501.201C665.13 498.97 655.45 496.021 650.5 494.641C645.55 493.25 632.05 489.53 620.5 486.37L599.5 480.62C569.27 480.32 558.92 480.421 557 480.66ZM277.75 519.67C275.69 519.85 273.15 520.79 272.11 521.75C271.08 522.71 268.49 524.06 266.36 524.73C264.24 525.41 261.09 525.97 259.36 525.98C256.69 526 255.94 526.591 254.36 529.951C252.79 533.29 251.92 533.991 248.75 534.451C245.56 534.921 245 535.38 245 537.5C245 539.07 246.02 540.741 247.75 542.01C249.26 543.12 251.63 545 253 546.201C254.38 547.391 255.83 549.98 256.23 551.94C256.63 553.9 256.96 556.96 256.98 558.75C256.993 560.924 256.416 562.241 255.25 562.701C254.29 563.091 251.93 564.43 250 565.69C248.08 566.94 245.87 568.54 245.09 569.24C244 570.21 243.83 572.141 244.34 577.75L245 585C234.67 595.78 233.01 598.26 233.01 600.25C233 601.76 233.68 603.671 234.5 604.5C235.33 605.33 237.24 605.99 238.75 605.97C240.26 605.95 244.43 605.5 248 604.97C251.58 604.44 256.75 603.611 259.5 603.13C262.25 602.641 264.95 602.401 265.5 602.591C266.05 602.771 266.84 603.73 267.26 604.711C267.76 605.881 267.42 607.14 266.26 608.36C265.29 609.39 259.66 612.65 253.75 615.61C247.84 618.58 242.61 621.79 242.13 622.75C241.62 623.78 241.67 625.52 242.27 627C243.06 628.97 242.82 630.41 241.14 633.75C239.96 636.09 239.21 638.34 239.48 638.75C239.74 639.16 241.42 638.34 243.23 636.93C245.03 635.51 246.81 633.26 247.19 631.93C247.56 630.59 249.08 628.83 250.56 628C252.04 627.171 255.84 623.58 259 620C263.64 614.75 266.63 612.51 274.62 608.35C282.59 604.19 285.44 602.06 289.38 597.35C292.06 594.13 294.98 590.021 295.88 588.211C297.02 585.881 298.53 584.641 301 583.961C302.93 583.441 305.96 583.01 307.75 583.01C309.54 583 312.01 583.48 313.25 584.081C315.1 584.961 315.86 584.78 317.5 583.07C318.6 581.921 321.52 580.521 324 579.961C327.44 579.181 329.68 579.281 333.5 580.391C336.25 581.19 339.18 582.57 340 583.47C340.83 584.36 341.84 585.07 342.25 585.04C342.66 585.02 343.02 584.21 343.05 583.25C343.1 581.78 343.38 581.87 344.8 583.8C346.12 585.58 347.45 586.08 350.75 586.05C353.09 586.02 356.46 585.311 358.25 584.461C360.59 583.351 362.2 581.39 364 577.49C365.38 574.5 366.24 571.4 365.91 570.6C365.59 569.79 362.67 568.39 359.41 567.47C356.16 566.56 347.88 562.97 341 559.49C331.28 554.58 327.72 552.211 324.98 548.841C323.04 546.451 320.24 542.701 318.74 540.5C317.25 538.3 316.02 535.6 316 534.5C315.98 533.4 316.46 532.05 317.06 531.5C317.66 530.951 317.89 529.49 317.58 528.25C317.26 527.01 316.44 525.82 315.75 525.6C315.06 525.39 312.25 525.65 309.5 526.18C306.75 526.72 302.84 527.681 300.81 528.331C297.44 529.401 296.8 529.27 293.31 526.8C291.22 525.32 288.38 522.951 287 521.531C285.63 520.111 283.83 519.04 283 519.141C282.18 519.25 279.81 519.49 277.75 519.67ZM945.35 551.49C944.33 552.92 942.76 555.09 941.85 556.3C940.21 558.47 940.14 558.48 935.35 556.79C932.68 555.84 927.71 554.78 924.29 554.42C918.99 553.86 917.67 554.061 915.29 555.781C912.88 557.531 912.16 557.631 910 556.531C908.62 555.831 905.81 554.98 903.75 554.63C900.43 554.07 899.74 554.33 897.75 556.91C896.51 558.52 892.12 562.051 888 564.76C883.87 567.48 878.59 570.67 876.25 571.85C873.91 573.03 871.33 574 870.5 574C869.67 574 866.64 575.611 863.75 577.57C860.86 579.53 857.37 581.35 856 581.61C854.62 581.86 851.25 583.24 848.5 584.66C845.75 586.08 842.15 587.25 840.5 587.24C838.85 587.24 836.49 586.73 835.25 586.12C834.01 585.5 831.76 585 830.25 585C828.74 584.99 824.35 583.81 820.5 582.36C816.65 580.91 812.15 579.79 810.5 579.86C808.85 579.94 805.7 580.16 803.5 580.37C801.3 580.57 796.8 581.3 793.5 581.98C790.2 582.67 785.7 584.041 783.5 585.031C781.3 586.011 778.15 587.12 776.5 587.5C774.85 587.88 771.48 588.391 769 588.641C766.46 588.901 760.58 588.221 755.5 587.091L746.5 585.091C740.59 591.611 735.42 597.01 731.19 601.31C726.96 605.61 720.35 611.211 716.5 613.771C712.65 616.331 705.9 619.89 701.5 621.67C697.1 623.46 690.35 625.6 686.5 626.44C682.65 627.27 672.52 628.48 664 629.11C652.39 629.97 643.48 629.98 628.5 629.13C617.5 628.51 602.65 627.33 595.5 626.5C588.35 625.671 578.9 624.3 574.5 623.44C570.1 622.581 562 620.38 556.5 618.56C551 616.74 541.89 612.94 536.25 610.12C530.61 607.31 522.74 602.671 518.75 599.82C514.76 596.98 509.54 592.81 507.13 590.57C504.73 588.331 500.84 584.02 498.47 581C496.11 577.98 493.02 572.91 491.59 569.75L489 564C483.96 566.57 478.68 568.37 474 569.66C469.13 571.01 464.86 572.811 464 573.891C463.18 574.921 460.93 576.29 459 576.92C457.07 577.55 452.57 578.09 449 578.12C444.39 578.16 439.31 577.201 431.5 574.841L420.5 571.5C412.75 575.23 411.75 575.27 400.5 574.1C393.9 573.41 385.01 572.21 380.75 571.42C373.93 570.17 372.64 570.18 370 571.5C367.7 572.65 366.63 574.23 365.4 578.25L363.8 583.5C370.54 589.25 373.29 591.171 374.25 591.461C375.21 591.76 376.22 592.79 376.48 593.75C376.9 595.26 378.66 595.57 389.4 596C396.23 596.27 402.2 596.85 402.66 597.271C403.12 597.691 403.05 598.46 402.5 598.97C401.95 599.49 396.32 600.38 390 600.951C383.68 601.521 374.9 602.561 370.5 603.271C365.66 604.04 360.72 605.571 358 607.151L353.5 609.74C359.24 613.5 360.88 613.85 363.75 613.38C366.65 612.9 367.67 613.13 368.25 614.38C368.72 615.391 368.34 616.75 367.25 617.99C366.25 619.13 364.22 619.99 362.5 620C360.85 620.01 355.9 619.85 351.5 619.641C347.1 619.431 341.7 618.94 339.5 618.55C337.3 618.16 331.34 618.32 326.25 618.92C321.16 619.51 316.55 619.77 316 619.5C315.45 619.23 316.12 618.1 317.5 617C318.87 615.9 320 614.55 320 614C320 613.451 318.31 612.551 316.25 612.01C314.19 611.461 311.04 611.01 309.25 611.01C307.46 611 305.84 611.56 305.65 612.25C305.46 612.94 306.92 614.93 308.9 616.67C312.14 619.53 312.35 620.01 311 621.47C310.18 622.37 307.48 623.36 305 623.68C302.41 624.01 298.8 623.71 296.5 622.97C294.3 622.27 291.05 620.071 289.27 618.091L286.04 614.5C278.65 617.421 273.8 618.48 270.5 618.75C264.74 619.21 264.22 619.49 257.5 625.74C253.65 629.33 249.26 634.451 247.75 637.13C245.88 640.44 244.04 642.32 242 643C240.15 643.62 238.82 644.86 238.52 646.25C238.25 647.49 237.84 652.33 237.59 657C237.34 661.671 236.89 667.41 236.57 669.75C236.09 673.35 236.27 674 237.75 674C238.71 674 242.65 673.15 246.5 672.1C250.35 671.05 257.32 669.42 262 668.47C266.68 667.52 271.29 667.03 272.25 667.37C273.33 667.76 273.81 668.671 273.5 669.75C273.22 670.71 270.05 674.201 266.45 677.5C262.85 680.8 259.93 683.84 259.96 684.25C259.98 684.66 260.68 685 261.5 685C262.32 685 263.23 685.9 263.5 687C263.77 688.1 264.9 689.451 266 690C267.1 690.55 268.79 692.14 269.75 693.54C271.42 695.96 271.42 696.13 269.68 697.29C268.43 698.11 267.96 699.451 268.18 701.5C268.48 704.32 268.76 704.5 272.82 704.5C275.92 704.5 277.41 705 278.07 706.25C278.77 707.56 278.46 708.44 276.83 709.75C275.64 710.71 273.72 712.491 272.58 713.711C271.44 714.931 269.49 715.941 268.25 715.961C267.01 715.98 265.72 716.79 265.38 717.75C265 718.81 265.6 720.48 266.89 722C268.07 723.38 269.81 725.96 270.76 727.73C272.3 730.6 273.04 731 277.26 731.23C279.88 731.38 282.13 731.921 282.26 732.44C282.39 732.961 279.8 734.19 276.5 735.18C273.2 736.16 269.6 736.971 268.5 736.961C267.4 736.951 265.71 736.17 264.75 735.22C263.1 733.59 262.96 733.63 262.11 736L261.21 738.5C259.61 734.63 259.4 732.6 259.7 731.5C260.03 730.33 259.38 728.15 258.13 726.25C256.96 724.46 256 722.55 256 722C256 721.451 255.32 720.77 254.5 720.5C253.68 720.23 251.87 720 250.5 720C248.16 720 248.04 720.25 248.64 723.75C248.99 725.81 249.67 728.51 250.14 729.75C250.61 730.99 251.68 732 252.5 732C253.32 732 254.01 732.79 254.03 733.75C254.04 734.711 252.89 736.63 251.48 738C249.28 740.151 248.63 740.32 246.96 739.25C245.25 738.16 244.93 738.281 244.42 740.25C244.11 741.49 244.22 742.781 244.67 743.13C245.13 743.48 247.19 744.26 249.25 744.88C251.31 745.5 254.35 747.35 256 749L259 752C261.01 747.62 262.43 746.401 263.76 746.25C265.23 746.091 266.7 746.951 268.03 748.75C269.15 750.26 270.05 752.06 270.03 752.75C270.01 753.48 271.25 754 273 754C274.65 754 277.91 754.98 280.25 756.17C282.59 757.36 285.18 758.651 286 759.021C287.03 759.49 287.58 761.49 287.75 765.35C287.99 770.76 287.86 771.091 284.75 773C282.96 774.091 280.71 774.99 279.75 775C278.79 775 278 775.451 278 776C278 776.55 279.46 777.37 281.25 777.81C284.49 778.63 284.5 778.66 284.79 785.56C284.94 789.38 285.17 792.61 285.29 792.75C285.4 792.891 287.19 792.331 289.25 791.5C291.31 790.68 293.23 790 293.5 790C293.77 790 293.77 790.901 293.5 792C293.12 793.5 293.5 794 295 794C296.17 794 297.21 794.831 297.5 796C297.81 797.23 298.58 797.81 299.5 797.5C300.32 797.23 301.23 797.451 301.5 798C301.77 798.55 301.36 800.24 300.59 801.75C299.81 803.26 298.43 805.17 297.51 806C296.04 807.341 295.57 807.31 293.18 805.771C290.59 804.111 290.42 804.13 288.27 806.271C287.05 807.5 286.03 809.06 286.02 809.75C286.01 810.44 286.45 811.901 287 813C287.99 814.98 288.03 814.97 290.49 812.75C292.72 810.73 293.26 810.63 295.74 811.81C298.04 812.901 300.68 812.86 311.5 811.56C318.65 810.711 326.41 810 328.75 810C331.09 810 333 810.451 333 811C333 811.55 331.76 812.79 330.25 813.75C328.74 814.711 326.37 815.73 325 816C323.02 816.401 322.45 817.19 322.25 819.75C322.11 821.54 321.44 823.031 320.75 823.07C320.06 823.11 316.35 823.081 312.5 823.01C307.88 822.92 304.48 823.4 302.5 824.43C300.85 825.29 298.74 825.99 297.82 825.99C296.9 826 295.44 826.67 294.57 827.5C293.71 828.331 293.23 829.451 293.5 830C293.77 830.55 296.36 831.01 299.25 831.031C303.84 831.051 304.69 830.73 306 828.5C306.99 826.82 308.36 825.96 310 825.98C311.37 826 315.32 825.67 318.76 825.26C323.51 824.68 325.02 824.8 325.01 825.75C325 826.44 323.91 827.56 322.58 828.25L320.16 829.5L324.5 832.74C319.08 835.61 318.89 835.93 320.5 835.97C321.6 836 324.43 834.11 326.79 831.76C330.22 828.351 331.02 826.901 330.79 824.5C330.57 822.25 330.87 821.59 332 821.87C332.82 822.081 334.29 822.41 335.25 822.62C336.31 822.85 337 822.41 337 821.5C337 820.67 337.34 819.981 337.75 819.961C338.16 819.93 339.18 820.63 340 821.5C340.82 822.37 342.51 823.07 343.75 823.04C345.25 823.02 346.333 823.841 347 825.5C347.55 826.88 348.79 827.99 349.75 827.97C350.71 827.96 352.62 829.08 354 830.47L356.5 833C359.21 828.35 360.34 827.12 360.75 827.271C361.16 827.43 362.96 828.44 364.74 829.521C366.53 830.611 367.98 831.951 367.97 832.5C367.96 833.05 367.17 834.301 366.22 835.281C364.59 836.971 364.59 837.061 366.25 837.031C367.21 837.01 368.45 837.901 369 839C369.55 840.1 370 842.581 370 844.5C370 847.24 370.6 848.37 372.75 849.711C374.26 850.651 376.62 852.34 378 853.47C379.37 854.59 383.2 856.161 386.5 856.951C389.8 857.731 393.4 858.951 394.5 859.67C396.21 860.77 397.73 860.521 405 857.951C409.68 856.3 414.18 854.29 415 853.5C415.82 852.701 417.62 852.041 419 852.031C420.37 852.021 422.96 852.91 424.75 854L428 856C430.32 851.35 431 848.54 430.99 846.75C430.99 844.961 431.6 842.6 432.34 841.5C433.09 840.401 434 836.24 434.35 832.25C434.71 828.26 435.39 824.211 435.86 823.25C436.34 822.29 437.35 821.231 438.11 820.901C438.88 820.581 443.55 820.701 448.5 821.18C453.45 821.66 460.2 822.73 463.5 823.56C466.8 824.391 472.2 826.481 475.5 828.201C478.8 829.92 485.77 833.521 491 836.211C496.23 838.891 500.82 841.63 501.21 842.3C501.6 842.96 503.4 845.5 505.21 847.94C507.02 850.38 510.75 854.661 513.5 857.451C517.01 861.021 520.14 863.09 524 864.41C529.22 866.2 529.76 866.221 534.5 864.641C537.25 863.721 540.65 862.98 542.05 862.99C543.45 862.99 545.03 862.59 545.55 862.1C546.07 861.6 549.87 860.94 554 860.63C558.12 860.331 563.3 859.771 565.5 859.401C567.82 859.01 571.18 857.331 573.5 855.391C576.6 852.81 577.89 852.281 579.25 853.031C580.52 853.731 581.66 853.521 583.38 852.25C584.69 851.29 586.83 848.52 588.13 846.11C589.44 843.69 593.54 838.85 597.25 835.36C600.96 831.86 605.69 827.87 607.75 826.48C609.81 825.09 612.9 823.85 614.6 823.73C616.31 823.6 618.34 824.041 619.1 824.701C619.87 825.36 625.45 828.451 631.5 831.57C642.02 837.01 642.74 837.22 648 836.62C651.02 836.28 654.07 835.43 654.76 834.75C655.46 834.06 656.14 832.38 656.26 831C656.44 829.151 657.6 827.98 660.69 826.5C662.99 825.401 666.36 822.991 668.19 821.151C670.8 818.51 672.03 817.93 674 818.42C676.14 818.951 676.38 818.781 675.64 817.271C675.16 816.301 674.53 811.451 674.24 806.5C673.91 801.081 674.2 794.91 674.95 791C675.64 787.42 677.46 781.8 679 778.5C680.53 775.201 683.75 770.171 686.15 767.331C688.54 764.481 692.3 760.711 694.5 758.94C696.7 757.18 700.98 754.591 704 753.19C707.02 751.8 711.75 750.07 714.5 749.341C717.25 748.621 722.99 748.021 727.25 748.01C731.51 748.01 737.36 748.5 740.25 749.12C743.14 749.74 748.2 751.461 751.5 752.94C754.8 754.43 760.2 758.13 763.5 761.16C766.8 764.2 770.95 768.891 772.73 771.591C774.51 774.291 777.17 779.88 778.65 784C780.89 790.25 781.33 793.16 781.33 801.5C781.32 807 780.75 813.521 780.06 816L778.79 820.5C785.83 826.581 788.84 828.19 791 828.47C792.92 828.72 798.55 829.201 803.5 829.55C810.73 830.07 814.57 829.76 823 827.99C828.77 826.78 837.77 824.01 843 821.831C848.23 819.661 854.64 816.55 857.25 814.94C859.86 813.32 865.04 810.64 868.75 808.98C875.49 805.97 875.53 805.971 892.5 806.19C907.91 806.401 910.29 806.201 918 803.99C923.78 802.34 927.78 800.49 930.5 798.22C932.7 796.38 935.06 795.13 935.75 795.44C936.44 795.75 937.67 796 938.5 796C939.46 796 940.27 797.451 940.75 800.021C941.39 803.43 941.88 804.04 944 804.05C945.37 804.06 947.74 803.151 949.25 802.031C950.76 800.921 952.67 798.651 953.5 797C954.33 795.35 956.01 793.31 957.25 792.47C959.05 791.25 960 791.171 962 792.091C963.73 792.88 965.74 792.951 968.5 792.3C971.19 791.66 973.97 791.72 977 792.49C979.48 793.11 983.52 794.591 986 795.771C988.48 796.951 993.42 798.211 997 798.56C1003.36 799.201 1003.56 799.15 1006.25 796.11C1007.76 794.4 1009.67 793 1010.5 793C1011.33 793 1013.58 793.67 1015.5 794.5C1017.55 795.38 1019.24 796.93 1019.58 798.25C1019.91 799.49 1019.68 801.74 1019.08 803.25C1018.24 805.401 1018.33 806.55 1019.5 808.5C1020.33 809.88 1021.45 811 1022 811C1022.55 811 1023 810.55 1023 810C1023 809.451 1024.8 807.88 1027 806.5C1029.2 805.13 1032.01 803.04 1033.25 801.86C1035 800.18 1036.22 799.85 1038.75 800.36C1041.43 800.891 1042 800.69 1041.98 799.25C1041.97 798.29 1042.54 796.96 1043.23 796.3C1044.25 795.331 1044.16 794.59 1042.75 792.55C1041.79 791.15 1039.42 789.211 1037.48 788.25C1034.13 786.591 1033.95 786.23 1033.8 781C1033.71 777.98 1033.69 774.38 1033.77 773C1033.84 771.63 1033.36 769.921 1032.7 769.211C1032.04 768.491 1030.49 767.93 1029.25 767.961C1027.8 767.981 1026.56 767.09 1025.75 765.43C1025.06 764.021 1023.37 762.63 1022 762.35C1020.62 762.07 1018.94 761.65 1018.25 761.42C1017.43 761.14 1017.19 759.87 1017.54 757.75C1017.84 755.961 1019.43 752.48 1021.07 750C1022.7 747.521 1024.04 744.6 1024.04 743.5C1024.04 742.401 1024.94 740.6 1026.04 739.5C1027.16 738.37 1027.81 736.74 1027.52 735.75C1027.17 734.584 1026 734 1024 734C1022.22 734 1020.8 733.391 1020.5 732.5C1020.23 731.671 1020.34 728.8 1020.75 726.12C1021.29 722.59 1021.14 720.86 1020.19 719.87C1019.29 718.93 1019.07 717.07 1019.48 714C1020.01 710.06 1019.71 708.97 1017.04 705.25C1014.35 701.48 1014.12 700.63 1015.02 697.75C1015.58 695.96 1016.04 694.05 1016.05 693.5C1016.06 692.951 1015.02 691.38 1013.73 690C1012.29 688.46 1011.11 685.58 1010.65 682.5C1010.24 679.75 1010.26 677.16 1010.7 676.74C1011.14 676.32 1012.4 675.93 1013.5 675.88C1014.6 675.82 1016.85 676.07 1018.5 676.42C1020.15 676.77 1022.04 676.701 1022.71 676.281C1023.37 675.851 1024.5 672.29 1025.21 668.36C1026.12 663.31 1027.23 660.451 1029 658.581C1030.37 657.13 1032.06 655.96 1032.75 655.97C1033.44 655.99 1035.46 656.9 1037.25 658C1039.04 659.09 1040.95 660.01 1041.5 660.04C1042.05 660.06 1040.7 658.111 1038.5 655.69C1036.3 653.28 1032.59 648.98 1030.25 646.151C1027.91 643.321 1024.65 640.33 1023 639.5C1020.74 638.37 1018.22 638.16 1012.75 638.641C1007.19 639.13 1004.22 638.861 1000 637.51C996.98 636.53 994.05 635.37 993.5 634.92C992.95 634.46 992.66 633.06 992.86 631.8C993.05 630.53 992.49 628.04 991.61 626.25C990.72 624.46 990.26 621.99 990.58 620.75C990.94 619.34 990.55 617.94 989.53 617C988.64 616.171 987.93 615.16 987.96 614.75C987.98 614.34 989.57 611.41 991.5 608.25C993.85 604.391 995 601.27 995 598.75C995 596.69 994.55 594.77 994 594.5C993.45 594.23 992.77 592.65 992.5 591C992.16 588.97 990.37 586.62 986.97 583.75C983.12 580.49 982.08 579.03 982.54 577.5C982.9 576.26 982.44 574.82 981.31 573.72C980.21 572.63 978.04 571.95 975.75 571.97C972.47 572 971.78 571.57 970.25 568.57C969.29 566.69 965.91 562.861 962.75 560.07C959.59 557.28 956.33 555 955.5 555C954.59 555 953.9 553.921 953.75 552.25C953.54 549.96 952.97 549.451 950.35 549.19C947.9 548.951 946.79 549.46 945.35 551.49ZM299.18 605.75C299.37 606.71 300.2 607.64 301.02 607.81C301.83 607.98 303.62 607.211 305 606.091L307.5 604.07C299.55 604.01 298.88 604.29 299.18 605.75ZM220.25 630C218.46 631.1 216.79 632.34 216.54 632.75C216.28 633.16 217.07 634.12 218.29 634.87C220.16 636.04 221.22 636.04 225.28 634.87C228.26 634.02 230.05 632.94 230.05 632C230.04 631.171 229.46 629.93 228.77 629.23C228.07 628.54 226.6 627.98 225.5 627.99C224.4 628 222.04 628.91 220.25 630ZM678.3 835.25C677.17 836.49 674.06 839.35 671.38 841.62C668.69 843.891 665.76 847.04 664.85 848.62C663.23 851.44 663.28 851.63 667.12 858C669.76 862.38 671.02 865.641 670.98 868C670.95 870.13 671.63 872.141 672.72 873.141C673.7 874.041 675.96 875.05 677.75 875.391C680.76 875.951 681.09 875.74 682.25 872.55C683.16 870.05 684.25 868.951 686.25 868.55C688.88 868.02 689 867.74 689 862C689 858.701 689.46 855.891 690.01 855.75C690.57 855.61 689 851 686.52 845.5C684.04 840 682.01 834.94 682 834.25C682 833.56 681.63 833 681.17 833C680.71 833 679.42 834.01 678.3 835.25Z" fill="#BD9B61"/>
<path fill-rule="evenodd" clip-rule="evenodd" d="M771.001 164.8C766.331 166.87 760.361 169.9 757.751 171.53C755.141 173.16 747.721 177.97 741.251 182.2C734.791 186.44 725.671 192.49 721.001 195.65C716.331 198.81 712.271 201.67 712.001 202C711.731 202.33 709.701 203.91 707.501 205.49C705.301 207.08 702.601 209.31 701.501 210.44C700.401 211.57 698.601 214.3 697.501 216.5C696.401 218.7 692.971 224.55 689.891 229.5C686.801 234.45 682.811 241.43 681.021 245C679.221 248.57 676.281 253.52 674.481 256C672.671 258.48 669.581 262.75 667.611 265.5C665.641 268.25 663.351 271.74 662.511 273.25C661.681 274.76 658.371 279.49 655.151 283.75C651.931 288.01 647.081 294.87 644.381 299C641.671 303.12 638.151 309.65 636.541 313.5C634.921 317.35 632.381 322.07 630.891 324C629.391 325.93 627.741 328.62 627.221 330C626.561 331.74 626.661 333.11 627.531 334.5C628.231 335.6 629.081 337.62 629.431 339C630.051 341.41 630.021 341.41 628.541 338.75C627.691 337.24 626.771 336 626.501 336C626.231 336 627.761 339.26 629.911 343.25C632.071 347.24 634.721 353.43 635.811 357C636.901 360.57 638.061 365.64 638.401 368.25C638.731 370.86 639.231 373 639.501 373C639.771 373 641.691 371.94 643.751 370.64C645.811 369.34 650.761 366.64 654.751 364.64L662.001 361C681.961 320.31 693.151 298.37 699.761 286C706.361 273.62 715.031 257.87 719.031 251C723.031 244.12 728.571 235.12 731.341 231C734.121 226.87 739.671 219.11 743.691 213.75C747.711 208.39 751.231 204 751.501 204C751.771 204 751.091 205.46 749.981 207.25C748.871 209.04 745.071 215.9 741.541 222.5C738.011 229.1 732.901 239.22 730.191 245C727.481 250.77 722.561 261.35 719.251 268.5C715.941 275.65 711.331 285.55 709.011 290.5C706.691 295.45 701.861 306.25 698.291 314.5C694.721 322.75 689.571 334.9 686.851 341.5C684.131 348.1 682.041 353.55 682.201 353.62C682.371 353.68 687.671 352.68 694.001 351.39C700.331 350.1 711.351 348.36 718.501 347.52C725.651 346.69 736.821 346 743.321 346C752.531 346 755.461 345.67 756.571 344.5C757.361 343.68 758.011 342.66 758.031 342.25C758.041 341.84 760.681 335.43 763.891 328C767.101 320.57 770.231 311.69 770.861 308.25C771.501 304.72 771.641 301.24 771.171 300.25C770.711 299.29 770.421 297.15 770.531 295.5C770.641 293.85 771.011 291.37 771.351 290C771.701 288.62 771.761 288.06 771.491 288.75C771.221 289.44 770.661 290.01 770.251 290.01C769.841 290.02 768.911 287.88 768.191 285.26C767.441 282.54 766.851 274.93 766.821 267.5C766.781 260.35 767.261 249.1 767.881 242.5C768.491 235.9 769.461 223.75 770.021 215.5C770.581 207.25 772.101 195.32 773.391 189C774.681 182.68 776.471 175.81 777.371 173.75C778.271 171.69 779.451 170.22 780.001 170.5C780.551 170.77 781.341 170.5 781.751 169.89C782.161 169.28 781.831 168.38 781.001 167.9C780.021 167.326 779.938 167.033 780.751 167.02C781.441 167.01 782.001 166.55 782.001 166C782.001 165.45 781.661 165.17 781.251 165.38C780.841 165.59 780.591 164.69 780.701 163.38C780.811 162.07 780.591 161.01 780.201 161.02C779.821 161.02 775.671 162.73 771.001 164.8ZM494.671 164.37C494.891 166.1 494.401 167.32 493.251 167.93C491.811 168.69 491.561 169.97 491.811 175.18C492.031 179.56 492.851 182.73 494.471 185.5C495.751 187.7 498.231 191.3 499.971 193.5C501.711 195.7 505.451 202.22 508.271 208C511.091 213.77 514.551 220.83 515.951 223.69C517.351 226.54 518.611 228.79 518.751 228.69C518.891 228.58 517.641 225.35 515.971 221.5C514.311 217.65 510.711 210.11 507.971 204.75C505.241 199.39 503.111 194.8 503.251 194.55C503.391 194.3 505.791 197.56 508.581 201.8C511.381 206.03 517.521 216.47 522.241 225C526.951 233.52 533.811 247.02 537.491 255C541.161 262.98 546.221 274.68 548.731 281C551.241 287.32 553.571 292.81 553.901 293.19C554.231 293.57 559.001 294.6 564.501 295.49C570.001 296.38 577.871 298.44 582.001 300.07C586.121 301.7 589.571 302.91 589.651 302.76C589.731 302.62 591.471 298 593.511 292.5C595.551 287 599.311 278.39 601.861 273.37C604.411 268.34 606.161 264.41 605.751 264.62C605.341 264.83 604.031 263.09 602.841 260.75C601.651 258.41 600.191 255.99 599.591 255.36C598.991 254.74 596.701 251.84 594.501 248.93C592.301 246.02 589.491 242.6 588.251 241.32C587.011 240.05 586.001 238.66 586.001 238.25C586.001 237.84 584.841 236.15 583.411 234.5C581.991 232.85 579.861 230.19 578.671 228.59C577.471 226.98 574.441 223.38 571.911 220.59C569.391 217.79 566.011 214.05 564.411 212.27C562.811 210.5 561.051 209.37 560.501 209.76C559.951 210.16 559.821 210.04 560.221 209.49C560.611 208.95 559.491 207.3 557.721 205.84C555.951 204.37 552.251 201.11 549.501 198.59C546.751 196.07 541.121 191.42 537.001 188.26C532.871 185.11 529.271 182.3 529.001 182.01C528.731 181.73 526.481 179.91 524.001 177.96C521.521 176.02 518.261 173.66 516.751 172.71C515.241 171.77 513.211 170.2 512.251 169.23C511.291 168.26 507.571 166.49 504.001 165.31C500.421 164.12 496.791 162.84 495.921 162.45C494.661 161.89 494.401 162.29 494.671 164.37ZM468.531 252.51C468.821 257.45 470.151 267.57 471.491 275C472.831 282.43 475.071 292.44 476.471 297.25C477.861 302.06 478.771 306.45 478.501 307C478.231 307.55 478.671 307.77 479.501 307.5C480.381 307.21 480.701 306.48 480.261 305.75C479.774 304.923 479.941 304.756 480.761 305.25C481.441 305.66 485.041 304.88 488.751 303.5C492.461 302.13 498.871 300.03 503.001 298.84C507.121 297.64 511.061 296.29 511.751 295.83C512.681 295.21 512.371 294.37 510.501 292.5C509.121 291.12 508.001 289.32 508.001 288.5C508.001 287.68 507.551 287.23 507.001 287.5C506.451 287.77 505.801 287.21 505.561 286.25C505.321 285.29 502.281 281.12 498.811 276.99C495.341 272.85 490.811 266.89 488.751 263.74C486.251 259.913 484.501 258.166 483.501 258.5C482.581 258.81 481.321 257.88 480.251 256.11C479.291 254.52 476.141 251.04 473.251 248.37L468.011 243.52L468.531 252.51ZM516.001 401.82C512.971 403.36 506.001 407.04 500.501 410C495.001 412.96 481.831 419.69 471.231 424.94C460.631 430.2 452.311 434.88 452.731 435.34C453.151 435.81 452.791 436.03 451.931 435.84C451.061 435.65 448.011 436.62 445.151 438C442.291 439.37 439.961 440.84 439.971 441.25C439.991 441.66 439.431 441.69 438.751 441.31C438.031 440.91 438.141 441.36 439.001 442.35C439.821 443.31 441.171 444.06 442.001 444.03C443.181 443.98 443.221 443.81 442.171 443.23C441.111 442.65 441.211 442.11 442.671 440.61C444.121 439.11 444.601 439.01 445.001 440.11C445.351 441.08 447.151 441.47 451.001 441.42C454.461 441.36 458.351 440.49 461.501 439.04C464.251 437.78 467.511 436.58 468.751 436.37C470.341 436.11 470.781 436.37 470.261 437.25C469.768 438.076 469.934 438.243 470.761 437.75C471.441 437.34 471.771 436.55 471.501 436C471.221 435.45 471.671 434.77 472.501 434.5C473.381 434.2 473.691 433.49 473.251 432.76C472.751 431.933 472.918 431.766 473.751 432.26C474.431 432.67 474.741 433.56 474.421 434.25C474.111 434.94 474.561 434.6 475.441 433.5C476.311 432.4 476.921 431.86 476.771 432.3C476.631 432.74 478.311 431.84 480.511 430.3C482.701 428.76 484.951 426.93 485.501 426.24C486.051 425.54 487.401 424.82 488.501 424.62C489.601 424.43 491.401 423.8 492.501 423.23C493.601 422.65 495.691 422.26 497.151 422.34C498.611 422.43 499.621 422.84 499.401 423.25C499.181 423.66 499.781 424.29 500.751 424.65C501.711 425.01 502.951 425.39 503.501 425.5C504.051 425.62 504.501 425 504.501 424.13C504.501 423.26 505.021 422.54 505.661 422.52C506.311 422.51 507.211 422.09 507.661 421.59C508.161 421.05 507.891 421.01 507.001 421.5C506.171 421.95 507.071 420.77 509.001 418.87C510.921 416.96 514.631 412.62 517.251 409.2C519.861 405.79 522.001 402.1 522.001 401C522.001 399.9 521.881 399 521.751 399.01C521.611 399.02 519.021 400.28 516.001 401.82ZM788.501 428.73C791.251 428.94 795.301 428.94 797.501 428.73C799.701 428.52 797.451 428.35 792.501 428.35C787.551 428.36 785.751 428.53 788.501 428.73ZM812.501 428.74C815.251 428.94 819.971 428.94 823.001 428.74C826.021 428.53 823.771 428.37 818.001 428.37C812.221 428.37 809.751 428.53 812.501 428.74ZM728.001 440.94C724.821 441.55 725.961 442.08 740.501 446.74C749.301 449.56 757.171 451.56 758.001 451.2C759.141 450.7 759.261 450.88 758.501 451.95C757.701 453.08 757.901 453.22 759.501 452.66C760.601 452.27 762.281 452.18 763.251 452.47C764.321 452.79 764.711 453.48 764.251 454.23C763.711 455.1 764.001 455.24 765.251 454.73C766.211 454.33 767.221 454 767.501 454C767.771 454 767.811 453.66 767.591 453.25C767.361 452.84 768.261 452.39 769.591 452.25C771.351 452.07 771.861 452.4 771.501 453.5C771.221 454.32 771.451 455.22 772.001 455.5C772.551 455.77 773.711 455.66 774.581 455.25C775.641 454.75 775.974 453.75 775.581 452.25C775.101 450.39 775.481 449.9 777.751 449.43C779.261 449.12 781.511 448.44 782.751 447.93C783.981 447.42 784.771 446.55 784.501 446C784.191 445.38 786.391 445.03 790.251 445.08C793.681 445.12 795.931 445.35 795.251 445.58C794.561 445.81 794.001 446.45 794.001 447C794.001 447.55 795.461 447.89 797.251 447.75C799.221 447.6 800.401 447.01 800.251 446.25C800.061 445.31 802.671 445 810.751 445.01C818.061 445.02 821.021 445.34 820.001 446C818.811 446.77 819.011 446.97 821.001 447C822.371 447.02 832.721 447.47 844.001 447.99C855.271 448.52 866.751 449.03 869.501 449.13C873.271 449.26 875.231 449.94 877.501 451.89C879.151 453.31 878.471 452.31 876.001 449.66C873.521 447.01 870.161 443.86 868.521 442.67C866.741 441.37 865.911 441.1 866.461 442C867.211 443.22 867.111 443.28 865.941 442.31C864.981 441.52 859.261 441.05 849.001 440.92C840.471 440.82 829.781 441.13 825.241 441.62C820.691 442.1 816.981 442.84 816.991 443.25C816.991 443.66 811.931 443.94 805.751 443.88C798.411 443.8 795.541 443.5 797.501 443C799.521 442.48 796.921 442.16 789.501 442C782.081 441.84 779.471 441.51 781.501 441C783.151 440.58 772.571 440.24 758.001 440.25C743.421 440.26 729.921 440.57 728.001 440.94ZM434.351 443.28C433.331 443.87 432.051 445.02 431.501 445.83C430.951 446.64 429.931 447.01 429.251 446.65C428.561 446.29 428.001 446.45 428.001 447C428.001 447.55 427.551 447.77 427.001 447.5C426.451 447.22 425.421 447.56 424.721 448.25C424.021 448.94 422.931 449.65 422.301 449.84C421.671 450.03 420.891 450.59 420.571 451.09C420.261 451.59 419.551 451.77 419.001 451.5C418.451 451.22 416.911 451.56 415.571 452.25C414.241 452.94 413.281 454.17 413.451 455C413.611 455.82 413.411 457.16 413.001 457.97C412.441 459.09 412.651 459.26 413.881 458.67C414.771 458.24 416.621 457.67 418.001 457.39C420.461 456.9 420.461 456.91 417.751 458.45C416.231 459.3 415.001 460.22 415.001 460.5C415.001 460.77 416.781 460.21 418.961 459.25C421.131 458.29 422.711 457.16 422.461 456.75C422.201 456.34 422.611 456.11 423.371 456.25C424.121 456.39 427.941 454.92 431.871 453C436.311 450.82 438.811 449.03 438.501 448.25C438.221 447.56 438.471 446.89 439.051 446.75C439.691 446.6 439.791 445.79 439.301 444.71C438.861 443.73 437.981 442.76 437.351 442.56C436.721 442.37 435.371 442.69 434.351 443.28ZM407.991 456.88C407.401 457.77 407.191 457.91 407.511 457.2C407.981 456.17 407.401 456.2 404.801 457.32C402.981 458.11 400.281 459.37 398.791 460.12C397.301 460.88 396.401 461.94 396.791 462.48C397.201 463.05 396.881 463.2 396.001 462.83C395.171 462.49 392.701 463.32 390.501 464.68C387.481 466.54 387.111 467.01 389.001 466.58C391.281 466.07 391.251 466.13 388.711 467.26C387.181 467.94 386.281 468.84 386.711 469.26C387.141 469.68 386.481 470.91 385.251 472.01C384.011 473.1 382.941 474.56 382.881 475.25C382.811 475.94 382.811 477.06 382.881 477.75C382.951 478.49 382.491 478.69 381.761 478.25C380.934 477.75 380.768 477.916 381.261 478.75C381.811 479.68 382.951 479.36 385.751 477.47C387.811 476.08 389.831 474.95 390.251 474.97C390.661 474.98 392.231 474.08 393.751 472.96C395.261 471.84 395.931 470.94 395.251 470.96C394.561 470.98 394.191 470.66 394.431 470.25C394.671 469.84 395.911 469.67 397.181 469.87C398.461 470.08 399.831 469.74 400.251 469.12C400.771 468.34 400.311 468.22 398.751 468.71C397.391 469.14 396.741 469.04 397.121 468.46C397.461 467.93 399.141 466.94 400.871 466.25C402.591 465.56 403.771 464.55 403.501 464C403.221 463.45 403.781 462.58 404.751 462.07C406.371 461.2 406.351 461.08 404.501 460.44C402.831 459.86 402.751 459.61 404.001 458.92C404.911 458.42 405.771 458.57 406.181 459.3C406.691 460.19 407.341 460.08 408.681 458.88C409.681 457.99 411.171 457.05 412.001 456.8C413.061 456.48 412.851 456.19 411.281 455.81C409.881 455.47 408.671 455.86 407.991 456.88ZM575.001 479.74C578.021 479.94 582.521 479.94 585.001 479.73C587.471 479.53 585.001 479.36 579.501 479.36C574.001 479.37 571.971 479.53 575.001 479.74ZM439.971 499.75L433.501 506.5C443.971 496.42 447.011 493.39 447.011 493.25C447.001 493.11 446.871 493 446.721 493C446.561 493 443.531 496.04 439.971 499.75ZM740.131 554.75C740.061 555.44 738.311 557.57 736.251 559.48C734.181 561.4 731.031 563.54 729.231 564.23C727.441 564.93 725.981 565.84 725.981 566.25C725.991 566.66 724.981 566.69 723.751 566.31C721.941 565.76 721.691 565.9 722.501 567.04C723.281 568.15 723.121 568.3 721.751 567.73C720.781 567.33 720.011 567.34 720.021 567.75C720.031 568.16 716.761 570.02 712.771 571.87C708.771 573.73 704.711 575.64 703.751 576.12C702.781 576.6 701.441 576.66 700.771 576.25C699.871 575.7 699.761 576.04 700.341 577.5C700.781 578.6 700.771 579.17 700.321 578.77C699.871 578.37 698.151 579.29 696.501 580.81C694.851 582.32 691.251 584.89 688.501 586.51C685.751 588.13 679.901 590.24 675.501 591.2C671.101 592.16 667.051 592.94 666.501 592.94C665.951 592.93 668.761 591.37 672.751 589.46C676.731 587.56 679.991 585.44 679.981 584.75C679.974 583.91 679.641 583.993 678.981 585C678.361 585.94 677.721 586.13 677.251 585.5C676.831 584.95 674.811 584.5 672.751 584.5C670.691 584.5 669.001 584.84 669.001 585.25C669.001 585.66 668.321 586 667.501 586C666.671 586 666.221 585.55 666.501 585C666.834 584.333 666.334 584.333 665.001 585C663.901 585.55 654.561 586.11 644.251 586.25C630.591 586.43 622.241 586.03 613.501 584.76C606.901 583.81 599.021 582.4 596.001 581.63C592.971 580.86 588.471 580.38 586.001 580.56C582.071 580.85 581.941 580.8 585.001 580.19C586.921 579.81 579.721 579.48 569.001 579.45C554.781 579.42 546.931 578.93 540.001 577.64C534.771 576.67 528.021 575.18 525.001 574.33C521.971 573.48 516.461 571.48 512.751 569.89C509.031 568.3 505.661 567.22 505.251 567.49C504.831 567.76 505.281 568.21 506.251 568.49C507.211 568.77 507.991 569.56 507.991 570.25C507.991 570.94 511.701 575.14 516.241 579.59C520.781 584.05 527.421 589.49 531.001 591.68C534.571 593.88 542.001 597.71 547.501 600.2C553.001 602.7 559.751 605.45 562.501 606.32C565.251 607.19 570.201 608.58 573.501 609.42C576.801 610.25 586.921 611.92 596.001 613.13C609.791 614.97 617.591 615.34 643.501 615.41C672.541 615.49 675.051 615.36 683.251 613.25C688.061 612.01 694.811 609.86 698.251 608.47C701.681 607.08 706.861 604.38 709.751 602.47C712.631 600.56 718.481 595.51 722.751 591.24C727.011 586.97 732.521 580.66 735.001 577.21C737.471 573.76 740.031 569.49 740.671 567.72C741.321 565.95 741.851 563.37 741.851 562C741.861 559.77 741.771 559.72 741.091 561.5C740.351 563.43 740.311 563.42 739.661 561.25C739.271 559.92 739.441 558.9 740.091 558.75C740.691 558.61 740.981 557.37 740.731 556C740.471 554.62 740.211 554.06 740.131 554.75ZM431.001 557.73C432.921 557.94 436.301 557.94 438.501 557.73C440.701 557.51 439.121 557.33 435.001 557.33C430.871 557.33 429.071 557.51 431.001 557.73ZM641.001 629.74C644.021 629.94 649.201 629.94 652.501 629.74C655.801 629.54 653.321 629.38 647.001 629.38C640.671 629.38 637.971 629.54 641.001 629.74ZM719.001 758.11C716.521 758.61 711.801 760.28 708.501 761.83C705.201 763.38 700.751 766.19 698.621 768.07C696.491 769.96 693.291 773.52 691.511 776C689.731 778.47 687.281 783.2 686.061 786.5C684.841 789.82 683.601 796.07 683.301 800.5C682.791 807.84 683.041 809.4 686.421 819.5C688.461 825.61 694.131 838.28 699.161 848C704.151 857.62 709.831 868.2 711.791 871.5C713.761 874.8 717.871 881.5 720.931 886.39C723.991 891.28 726.831 895.44 727.251 895.64C727.661 895.84 728.651 895.21 729.451 894.25C730.251 893.29 735.631 884.62 741.401 875C747.181 865.37 755.271 850.52 759.381 842C763.491 833.47 767.841 823.57 769.041 820C770.241 816.42 771.451 809.9 771.731 805.5C772.101 799.82 771.761 795.61 770.571 791C769.641 787.42 767.611 782.25 766.051 779.5C764.481 776.75 760.571 772.09 757.351 769.16C754.131 766.22 749.251 762.74 746.501 761.42C743.751 760.1 739.021 758.56 736.001 758C732.971 757.44 728.921 757.03 727.001 757.1C725.071 757.16 721.471 757.62 719.001 758.11Z" fill="#728331"/>
<path fill-rule="evenodd" clip-rule="evenodd" d="M476.05 151.75C474.96 153.81 474.39 155.83 474.78 156.22C475.18 156.62 474.63 158.2 473.56 159.72C472.5 161.25 471.71 162.61 471.81 162.75C471.92 162.89 471.29 163.79 470.43 164.75C469.56 165.71 469.11 167.06 469.43 167.75C469.74 168.44 469.53 169.11 468.96 169.25C468.39 169.39 467.88 170.63 467.84 172C467.79 173.38 467.36 175.96 466.88 177.75C466.3 179.89 465.6 180.74 464.82 180.25C463.97 179.71 463.83 180.14 464.32 181.75C464.71 183.04 464.57 184 464 184C463.45 184 463.23 184.68 463.5 185.5C463.77 186.32 463.55 187 463 187C462.45 187 462.23 187.68 462.5 188.5C462.77 189.32 462.55 190 462 190C461.45 190 461.23 191.13 461.5 192.5C461.77 193.88 461.66 194.8 461.25 194.56C460.84 194.32 459.92 196.46 459.21 199.31C458.5 202.17 458.16 205.29 458.46 206.25C458.78 207.28 458.48 207.99 457.75 207.98C456.86 207.96 456.72 208.82 457.25 210.98C457.69 212.77 457.59 214.2 457 214.5C456.4 214.8 456.19 218.09 456.48 222.75C456.8 227.903 456.667 229.653 456.08 228C455.51 226.38 455.19 231.63 455.17 243C455.15 254.73 455.45 259.84 456.09 258.5C456.75 257.09 456.9 258.27 456.57 262.5C456.28 266.25 456.85 272.25 458.09 278.5C459.18 284 460.62 290.2 461.28 292.27C461.95 294.35 462.84 296.04 463.25 296.02C463.66 296.01 463.77 296.45 463.5 297C463.23 297.55 463.91 300.59 465.03 303.75C466.14 306.91 467.38 309.86 467.78 310.29C468.17 310.72 470.52 310.32 473 309.39C475.48 308.46 477.85 307.43 478.28 307.1C478.7 306.77 477.9 302.45 476.49 297.5C475.09 292.55 472.83 282.43 471.49 275C470.15 267.57 468.74 257.45 468.36 252.5L467.66 243.5C476.06 251.04 479.29 254.52 480.25 256.11C481.32 257.88 482.58 258.81 483.5 258.5C484.5 258.167 486.25 259.913 488.75 263.74C490.81 266.89 495.34 272.85 498.81 276.99C502.28 281.12 505.32 285.29 505.56 286.25C505.8 287.21 506.45 287.77 507 287.5C507.55 287.23 508 287.68 508 288.5C508 289.32 509.12 291.13 510.5 292.5C511.87 293.88 512.66 295.28 512.25 295.62C511.84 295.97 512.4 296 513.5 295.69C514.6 295.39 521.18 294.54 528.13 293.82L540.76 292.5C538.54 284.75 535.62 275.3 532.84 266.5C530.05 257.7 526.02 246.45 523.87 241.5C521.72 236.55 518.49 229.35 516.69 225.5C514.89 221.65 511.11 213.78 508.28 208C505.45 202.22 501.71 195.7 499.97 193.5C498.23 191.3 495.65 187.47 494.24 185C492.05 181.16 491.76 179.69 492.24 175C492.58 171.61 492.46 170.08 491.91 171C491.33 171.98 491.033 172.063 491.02 171.25C491.01 170.56 491.93 169.21 493.07 168.25C494.64 166.92 494.96 165.9 494.4 164C493.74 161.8 493.88 161.6 495.58 162.33C496.63 162.78 500.42 164.12 504 165.31C507.57 166.49 511.29 168.26 512.25 169.23C513.21 170.2 515.24 171.77 516.75 172.71C518.26 173.66 521.52 176.02 524 177.96C526.48 179.91 528.73 181.73 529 182.01C529.27 182.3 532.87 185.11 537 188.26C541.12 191.42 546.75 196.07 549.5 198.59C552.25 201.11 555.95 204.37 557.72 205.84C559.49 207.3 560.62 208.95 560.23 209.5C559.84 210.05 559.96 210.18 560.51 209.77C561.05 209.37 562.81 210.5 564.41 212.27C566.01 214.05 569.39 217.79 571.91 220.59C574.44 223.38 577.47 226.98 578.67 228.59C579.86 230.19 581.99 232.85 583.41 234.5C584.84 236.15 586 237.84 586 238.25C586 238.66 587.01 240.05 588.25 241.32C589.49 242.6 592.3 246.02 594.5 248.93C596.7 251.84 598.99 254.74 599.59 255.36C600.19 255.99 601.65 258.41 602.84 260.75C604.03 263.09 605.11 265.02 605.25 265.04C605.39 265.06 606.8 263.15 608.4 260.79C609.99 258.43 611.41 255.82 611.54 255C611.67 254.18 609.9 249.9 607.59 245.5C605.29 241.1 600.45 233.45 596.84 228.5C593.23 223.55 588.86 218.26 587.14 216.75C585.41 215.24 584.23 213.89 584.52 213.75C584.8 213.61 580.64 209.3 575.27 204.16C569.9 199.02 561.45 191.77 556.5 188.05C551.55 184.33 543.67 178.89 539 175.96C534.33 173.03 523.3 167.17 514.5 162.93C505.7 158.69 494.67 153.84 490 152.16C485.32 150.47 481.15 149.41 480.72 149.79C480.29 150.18 479.96 149.94 479.97 149.25C479.99 148.56 479.56 148 479.02 148C478.48 148 477.14 149.69 476.05 151.75ZM770.5 162.07C766.1 163.15 761.83 164.31 761 164.65C760.17 165 758.83 165.37 758 165.48C757.17 165.6 753.74 166.49 750.36 167.48C746.99 168.46 744.17 169.65 744.11 170.13C744.05 170.61 743.66 170.91 743.25 170.81C742.84 170.7 741.04 170.93 739.25 171.31C737.46 171.69 736 172.45 736 173C736 173.55 735.55 173.78 735 173.5C734.45 173.22 734 173.45 734 174C734 174.55 733.33 174.78 732.5 174.5C731.67 174.22 731 174.45 731 175C731 175.55 730.44 175.74 729.75 175.43C729.06 175.11 727.71 175.56 726.75 176.43C725.79 177.29 724.66 178 724.25 178C723.84 178.01 721.59 178.79 719.25 179.75C716.92 180.71 715.01 181.84 715 182.25C715 182.66 714.55 182.78 714 182.5C713.45 182.22 713 182.45 713 183C713 183.55 712.55 183.78 712 183.5C711.45 183.22 711 183.45 711 184C711 184.55 710.55 184.78 710 184.5C709.45 184.22 709 184.45 709 185C709 185.55 708.1 186.45 707 187C705.49 187.75 705.14 187.69 705.57 186.75C705.89 186.06 705.55 186.22 704.82 187.1C704.1 187.98 703.16 188.77 702.75 188.85C702.34 188.93 701.55 189 701 189C700.45 189 700.23 189.45 700.5 190C700.77 190.55 700.55 191 700 191C699.45 191 698.77 191 698.5 191C698.23 191 696.65 191.68 695 192.5C693.35 193.32 692 194.22 692 194.5C692 194.78 692.56 194.67 693.25 194.26C694.077 193.773 694.243 193.94 693.75 194.76C693.34 195.44 692.33 195.78 691.5 195.5C690.64 195.21 689.57 195.86 689 197C688.45 198.1 687.1 199.45 686 200C684.48 200.76 684.17 200.7 684.69 199.75C685.25 198.75 685.05 198.75 683.69 199.75C682.76 200.44 682.23 201.45 682.5 202C682.77 202.55 682.33 202.78 681.5 202.5C680.67 202.22 679.77 202.68 679.5 203.5C679.23 204.32 678.33 205 677.5 205C676.67 205 674.59 206.69 672.87 208.75C671.16 210.81 670.07 211.82 670.46 211C670.85 210.18 669.79 211.07 668.11 213C666.43 214.93 665.05 216.05 665.05 215.5C665.05 214.95 663.9 215.62 662.5 217C661.1 218.37 659.98 219.72 660.01 220C660.05 220.28 657.02 223.64 653.29 227.47C649.55 231.31 645.48 235.81 644.23 237.47C642.99 239.14 641.97 240.05 641.97 239.5C641.97 238.95 642.54 237.85 643.23 237.05C644.34 235.78 644.27 235.78 642.71 237.05C641.72 237.85 640.93 238.84 640.96 239.25C640.98 239.66 639.76 241.16 638.25 242.58C636.74 244 636.17 244.86 637 244.5C637.83 244.13 637.12 245.11 635.43 246.67C633.75 248.22 631.72 250.37 630.93 251.44C629.977 252.733 629.917 253.15 630.75 252.69C631.597 252.217 631.513 252.82 630.5 254.5C629.67 255.87 628.77 257 628.5 257C628.23 257 628.23 256.55 628.5 256C628.77 255.45 628.77 255 628.5 255C628.23 255 627.55 255.9 627 257C626.333 258.333 626.333 258.833 627 258.5C627.667 258.167 627.667 258.667 627 260C626.45 261.1 625.77 262 625.5 262C625.23 262 625.3 261.44 625.66 260.75C626.04 260.03 625.94 259.85 625.41 260.33C624.91 260.79 624.5 261.92 624.5 262.83C624.5 263.75 623.94 264.39 623.25 264.25C622.54 264.11 622.21 264.64 622.5 265.5C622.77 266.32 622.44 267.34 621.76 267.75C620.85 268.3 620.78 268.11 621.51 267.01C622.24 265.91 622.17 265.71 621.25 266.26C620.56 266.67 620.23 267.45 620.5 268C620.77 268.55 620.44 269.9 619.75 271C619.06 272.1 618.27 272.77 618 272.49C617.73 272.21 617.16 272.66 616.75 273.49C616.31 274.39 616.41 274.8 617 274.5C617.55 274.23 617.33 275.35 616.5 277C615.67 278.65 614.55 280 614 280C613.45 280 613.23 280.45 613.5 281C613.77 281.55 613.55 282 613 282C612.45 282 612.23 282.45 612.5 283C612.77 283.55 612.55 284 612 284C611.45 284 611.29 284.56 611.65 285.25C612.01 285.94 611.63 286.95 610.81 287.5C610 288.05 608.8 289.51 608.16 290.75C607.52 291.99 607.33 293.79 607.73 294.75C608.31 296.14 608.15 296.29 607 295.5C605.85 294.71 605.69 294.86 606.27 296.25C606.68 297.24 606.56 298 606 298C605.44 298 605.32 298.76 605.73 299.75C606.25 300.99 606.1 301.28 605.23 300.75C604.417 300.257 604.173 300.507 604.5 301.5C604.77 302.32 604.55 303 604 303C603.45 303 603.34 303.5 603.75 304.11C604.16 304.72 603.83 305.62 603 306.1C602.02 306.673 601.937 306.967 602.75 306.98C603.67 307 603.73 307.53 603 309C602.45 310.1 602.37 310.89 602.81 310.75C603.26 310.61 607.7 314.55 612.69 319.5C617.67 324.45 623.65 331.43 625.98 335C628.31 338.57 629.9 340.37 629.51 339C629.11 337.62 628.23 335.6 627.53 334.5C626.66 333.11 626.56 331.74 627.22 330C627.74 328.62 629.39 325.93 630.89 324C632.38 322.07 634.92 317.35 636.54 313.5C638.15 309.65 641.67 303.12 644.38 299C647.08 294.87 651.93 288.01 655.15 283.75C658.37 279.49 661.68 274.76 662.51 273.25C663.35 271.74 665.64 268.25 667.61 265.5C669.58 262.75 672.67 258.48 674.48 256C676.28 253.53 679.22 248.57 681.02 245C682.81 241.43 686.8 234.45 689.89 229.5C692.97 224.55 696.4 218.7 697.5 216.5C698.6 214.3 700.4 211.57 701.5 210.44C702.6 209.31 705.3 207.08 707.5 205.49C709.7 203.91 711.73 202.33 712 202C712.27 201.67 716.33 198.81 721 195.65C725.67 192.5 734.45 186.64 740.5 182.64C746.55 178.64 753.08 174.38 755 173.18C756.92 171.97 762.55 169.03 767.5 166.62C772.45 164.22 777.62 161.9 779 161.46C781.29 160.73 781.46 160.88 781 163.21C780.73 164.62 780.84 165.59 781.25 165.38C781.66 165.17 782 165.45 782 166C782 166.55 781.44 167.01 780.75 167.02C779.937 167.033 780.02 167.327 781 167.9C781.83 168.38 782.16 169.28 781.75 169.89C781.34 170.5 780.55 170.78 780 170.5C779.45 170.22 778.27 171.69 777.37 173.75C776.47 175.81 774.68 182.68 773.39 189C772.1 195.32 770.58 207.25 770.02 215.5C769.46 223.75 768.49 235.9 767.88 242.5C767.26 249.1 766.78 260.35 766.82 267.5C766.85 274.93 767.44 282.54 768.19 285.26C768.91 287.88 769.84 290.02 770.25 290.01C770.66 290.01 771.22 289.44 771.49 288.75C771.76 288.06 771.7 288.62 771.35 290C771.01 291.37 770.64 293.85 770.53 295.5C770.42 297.15 770.71 299.29 771.17 300.25C771.64 301.24 771.5 304.72 770.86 308.25C770.23 311.69 767.1 320.57 763.89 328C760.68 335.43 758.04 342.06 758.03 342.75C758.01 343.44 757.55 344 757 344C756.45 344 756 344.45 756 345C756 345.55 758.48 346 761.5 346H767C773.03 333.99 776.85 325.66 779.39 319.75C781.92 313.84 785.34 303.94 786.99 297.75C788.63 291.56 790.96 280.43 792.18 273C793.89 262.48 794.37 255.42 794.35 241C794.34 230.82 793.77 217.55 793.1 211.5C792.42 205.45 790.78 195.1 789.44 188.5C788.11 181.9 785.96 172.9 784.65 168.5C782.84 162.36 781.85 160.45 780.39 160.3C779.35 160.2 774.9 160.99 770.5 162.07ZM505.29 422.4C502.97 425.24 502.22 425.62 500.81 424.65C499.89 424.02 499.33 423.16 499.56 422.75C499.8 422.34 499.21 422.3 498.25 422.68C497.29 423.05 493.12 426.06 489 429.37C484.87 432.67 479.48 437.17 477 439.35C474.52 441.54 470.02 445.59 467 448.36C463.98 451.14 455.48 459.28 448.13 466.45C440.77 473.63 435.33 478.38 436.03 477C436.73 475.63 439.12 471.8 441.34 468.5C443.56 465.2 447.65 460.03 450.44 457.01C453.22 453.98 457.55 449.48 460.05 447.01C462.55 444.53 467.05 440.41 470.05 437.86C474.36 434.2 475.19 433.05 474.01 432.36C472.95 431.75 472.73 431.86 473.26 432.75C473.72 433.53 473.15 434.43 471.75 435.13C470.51 435.76 468.82 436.38 468 436.51C467.17 436.65 464.25 437.79 461.5 439.05C458.35 440.49 454.46 441.37 451 441.42C447.25 441.47 445.3 441.06 444.87 440.13C444.36 439.03 443.89 439.14 442.54 440.63C441.16 442.14 441.09 442.65 442.17 443.3C443.07 443.847 442.847 443.993 441.5 443.74C440.4 443.54 439.61 442.85 439.75 442.19C439.89 441.53 439.33 441.22 438.5 441.5C437.17 441.94 437.17 442.17 438.5 443.5C439.32 444.33 440 445.45 440 446C440 446.55 439.55 447 439 447C438.45 447 438.23 447.56 438.5 448.25C438.82 449.03 436.31 450.82 431.87 453C427.95 454.93 424.12 456.39 423.37 456.25C422.62 456.11 422.21 456.34 422.46 456.75C422.71 457.16 421.14 458.29 418.96 459.25C416.78 460.21 415 460.77 415 460.5C415 460.23 416.24 459.3 417.75 458.45C420.46 456.92 420.47 456.9 418 457.39C416.62 457.67 414.6 458.24 413.5 458.67C411.88 459.31 411.68 459.18 412.47 457.98C413.01 457.17 413.57 455.94 413.72 455.25C413.87 454.56 413.66 454.01 413.25 454.02C412.84 454.02 411.82 454.47 411 455C409.75 455.81 409.84 455.99 411.5 456.06C412.94 456.13 413.08 456.31 412 456.71C411.17 457.01 409.68 457.99 408.69 458.88C407.35 460.08 406.7 460.19 406.19 459.3C405.77 458.57 404.91 458.43 404 458.93C402.75 459.61 402.83 459.86 404.5 460.44C406.35 461.08 406.37 461.2 404.75 462.07C403.79 462.58 403.23 463.45 403.5 464C403.77 464.55 402.59 465.56 400.87 466.25C399.15 466.94 397.46 467.93 397.12 468.46C396.74 469.04 397.39 469.14 398.75 468.71C400.31 468.22 400.77 468.34 400.25 469.12C399.84 469.74 398.46 470.08 397.19 469.87C395.91 469.67 394.68 469.84 394.44 470.25C394.2 470.66 394.56 470.98 395.25 470.97C395.94 470.95 395.26 471.85 393.75 472.97C392.24 474.08 390.66 474.99 390.25 474.97C389.84 474.95 387.81 476.08 385.75 477.47C382.68 479.54 382.1 479.68 382.56 478.25C382.86 477.29 382 478.52 380.65 481C379.3 483.48 377.25 489.21 376.1 493.75C374.94 498.29 374 504.25 374 507C374 509.75 374.79 513.83 375.75 516.07C377.24 519.54 378.31 520.44 383 522.25C386.667 523.657 390.667 524.343 395 524.31C398.57 524.28 405.1 523.25 409.5 522.02C413.9 520.78 418.62 519.18 420 518.46C421.37 517.74 430.15 509.36 439.51 499.83C448.87 490.3 458.77 480.02 461.52 477C464.27 473.98 469.67 467.9 473.51 463.5C477.36 459.09 485.69 448.97 492.03 441C498.37 433.02 504.78 424.81 506.27 422.75C507.76 420.69 508.77 419 508.53 419C508.28 419 506.82 420.53 505.29 422.4ZM789.5 441.95C795.99 442.28 799.27 442.76 797.5 443.11C795.85 443.43 799.56 443.77 805.75 443.85C812.68 443.94 817 443.62 817 443C817 442.45 819.14 441.86 821.75 441.68C824.36 441.5 815.7 441.37 802.5 441.38C786.48 441.387 782.147 441.577 789.5 441.95ZM867.98 445.53C866.67 447 866.67 447.11 868 446.54C868.83 446.19 870.54 446.71 871.8 447.7C874.03 449.45 873.66 449.48 858.8 448.76C850.39 448.36 837.87 447.76 831 447.43C822.89 447.04 819.03 446.52 820 445.93C820.95 445.36 817.59 445.03 810.75 445.02C802.68 445 800.06 445.31 800.25 446.25C800.4 447.01 799.22 447.6 797.25 447.75C795.46 447.89 794 447.55 794 447C794 446.45 794.56 445.81 795.25 445.58C795.94 445.35 793.69 445.12 790.25 445.08C786.39 445.03 784.19 445.38 784.5 446C784.77 446.55 783.99 447.42 782.75 447.93C781.51 448.44 779.26 449.12 777.75 449.43C775.48 449.9 775.1 450.4 775.58 452.25C775.973 453.75 775.64 454.75 774.58 455.25C773.71 455.66 772.55 455.77 772 455.5C771.45 455.23 771.23 454.32 771.5 453.5C771.86 452.41 771.35 452.07 769.59 452.25C768.27 452.39 767.37 452.84 767.59 453.25C767.82 453.66 767.44 453.99 766.75 453.97C766.06 453.96 765.73 454.15 766 454.41C766.27 454.66 771.67 456.72 778 458.97C784.33 461.22 793.77 464.56 799 466.4C804.23 468.24 812.1 471.13 816.5 472.82C820.9 474.51 825.17 476.03 826 476.2C826.83 476.36 827.73 476.75 828 477.05C828.27 477.35 838.17 481.51 850 486.29C861.83 491.07 872.17 494.97 873 494.97C873.83 494.96 876.52 493.64 879 492.03C881.48 490.43 884.99 487.62 886.82 485.81C890.01 482.63 890.13 482.24 889.78 476C889.54 471.72 888.58 467.8 886.96 464.5C885.61 461.75 881.12 455.99 876.98 451.69C870.13 444.57 869.34 444.03 867.98 445.53ZM637.5 493.9C636.4 494.32 633.02 494.5 630 494.29L624.5 493.92C630.7 498.76 632.84 500.81 633.25 501.58C633.71 502.45 633.31 503.6 632.25 504.52C631.29 505.36 629.15 506.77 627.5 507.66C625.85 508.55 624.27 509.65 624 510.1C623.73 510.55 621.7 511.15 619.5 511.44C617.3 511.73 613.48 512.22 611 512.55C608.52 512.87 605.16 513.37 603.52 513.67C601.47 514.04 600.76 513.87 601.27 513.11C601.78 512.34 600.49 512.08 597.05 512.25C594.08 512.4 591.58 511.99 590.8 511.23C590.08 510.54 588.15 509.98 586.5 509.99C584.85 510.01 580.58 509.08 577 507.94C573.42 506.8 567.91 504.54 564.75 502.93C561.59 501.32 558.55 500 558 500C557.45 500 557.23 500.45 557.5 501C557.77 501.55 557.55 502 557 502C556.45 502 554.99 501.38 553.75 500.62C552.51 499.86 548.8 498.99 545.5 498.7C541.33 498.33 540.26 498.43 542 499.06C543.86 499.72 543.08 499.85 539 499.56C535.15 499.29 533.95 499.47 535 500.16C536.11 500.89 535.67 501.06 533.27 500.82C531.37 500.63 529.83 501.01 529.52 501.75C529.24 502.44 528.33 503 527.5 503C526.61 503 526.2 502.39 526.5 501.5C526.88 500.36 526.06 499.94 523.13 499.75C520.41 499.57 519.37 499.87 519.63 500.75C519.83 501.44 519.44 502.34 518.76 502.75C517.94 503.243 517.773 503.077 518.26 502.25C518.753 501.417 518.5 501.167 517.5 501.5C516.67 501.77 516 502.68 516 503.5C516 504.33 515.66 505 515.25 505C514.84 505.01 513.15 506.17 511.5 507.58C509.85 508.99 509.06 509.89 509.75 509.57C510.44 509.26 508.76 512.26 506.01 516.25C503.27 520.24 500.68 525.16 500.26 527.18C499.84 529.21 499.07 530.56 498.55 530.18C497.96 529.76 497.88 532.5 498.35 537.5C498.94 543.88 499.54 545.91 501.3 547.52C502.51 548.64 506.65 551.05 510.5 552.89C514.35 554.73 522.67 557.96 529 560.08C535.33 562.19 547.25 565.26 555.5 566.9C563.75 568.55 577.7 570.58 586.5 571.41C595.3 572.25 605.36 573.06 608.85 573.21C612.34 573.37 615.37 573.84 615.6 574.25C615.82 574.66 613.86 575.42 611.25 575.93C608.64 576.45 601.33 577.6 595 578.49C588.67 579.39 583.05 580.32 582.5 580.56C581.95 580.81 583.52 580.83 586 580.62C588.48 580.41 592.98 580.86 596 581.63C599.02 582.4 606.9 583.81 613.5 584.77C622.24 586.03 630.59 586.43 644.25 586.25C654.56 586.11 663.9 585.55 665 585C666.333 584.333 666.833 584.333 666.5 585C666.23 585.55 666.67 586 667.5 586C668.33 586 669 585.66 669 585.25C669 584.84 670.69 584.5 672.75 584.5C674.81 584.5 676.84 584.95 677.25 585.5C677.73 586.13 678.27 586.01 678.75 585.16C679.16 584.43 679.84 583.87 680.25 583.91C680.66 583.96 681.56 583.99 682.25 583.98C683.103 583.98 683.02 583.617 682 582.89C680.74 581.98 680.78 581.91 682.25 582.41C683.34 582.77 686.93 581.26 691.75 578.41C696.01 575.89 700.3 573.08 701.28 572.16C702.26 571.25 703.05 570.84 703.03 571.25C703.01 571.66 702.55 572.9 702 574C701.45 575.1 701.23 576.23 701.5 576.5C701.77 576.77 702.79 576.61 703.75 576.13C704.71 575.65 708.77 573.73 712.77 571.88C716.77 570.02 720.03 568.16 720.02 567.75C720.01 567.34 720.79 567.33 721.75 567.73C723.12 568.3 723.29 568.15 722.5 567.04C721.7 565.91 721.94 565.76 723.75 566.32C724.99 566.69 725.99 566.66 725.99 566.25C725.98 565.84 727.44 564.93 729.24 564.24C731.03 563.54 734.19 561.4 736.25 559.49C738.65 557.25 740 555.1 740 553.5C740 552.08 738.9 550.03 737.47 548.75C736.07 547.51 735.17 545.94 735.47 545.25C735.76 544.56 735.55 543.77 735 543.5C734.45 543.23 734.01 543.56 734.03 544.25C734.04 544.94 732.93 544.38 731.55 543C730.18 541.63 729.15 540.07 729.28 539.55C729.4 539.02 729.05 538.55 728.5 538.51C727.95 538.47 726.49 537.88 725.25 537.21C724.01 536.54 723.11 535.22 723.25 534.25C723.43 533.01 722.92 532.59 721.5 532.79C720.4 532.95 718.48 532.05 717.22 530.79C715.97 529.53 714.96 528.05 714.96 527.5C714.97 526.95 713.75 525.47 712.24 524.2C710.28 522.56 708.72 522.06 706.75 522.45C705.24 522.75 703.8 522.66 703.57 522.25C703.33 521.84 703.44 520.9 703.82 520.16C704.19 519.43 704.91 518.98 705.4 519.16C705.9 519.35 706.47 518.6 706.66 517.5C706.95 515.9 706.77 515.75 705.76 516.75C705.07 517.44 702.81 518.23 700.75 518.5C698.43 518.81 697.19 518.62 697.5 518C697.77 517.45 699.46 516.94 701.25 516.86C703.91 516.75 704.05 516.65 702 516.31C700.62 516.09 698.83 515.63 698 515.3C697.17 514.97 694.25 514.65 691.5 514.57C688.43 514.49 685.34 513.69 683.5 512.5C681.85 511.43 680.16 510.43 679.75 510.28C679.34 510.12 677.99 509.97 676.75 509.93C674.6 509.86 674.59 509.82 676.5 509C677.6 508.53 678.84 508.11 679.25 508.07C679.66 508.03 680.79 508.82 681.75 509.83C682.71 510.83 684.97 512.29 686.76 513.08C688.55 513.86 690.35 514.16 690.76 513.74C691.17 513.32 690.6 512.37 689.5 511.63C688.4 510.89 686.49 510.45 685.25 510.64C683.757 510.873 683.007 510.493 683 509.5C683 508.68 682.55 508 682 508C681.45 508 681.23 507.55 681.5 507C681.77 506.45 679.86 506.68 677.25 507.5C673.89 508.56 672.21 508.69 671.5 507.93C670.833 507.217 670.833 506.923 671.5 507.05C672.05 507.15 673.62 507.16 675 507.06C676.74 506.93 675.38 506.12 670.5 504.37C666.65 502.99 660.35 501.48 656.5 501.02C652.65 500.56 648.15 499.47 646.5 498.6C644.85 497.72 644.17 497.03 645 497.05C646.33 497.08 646.33 496.91 645 495.5C644.17 494.63 643.14 493.93 642.7 493.96C642.26 493.98 642.11 494.34 642.36 494.75C642.6 495.16 641.65 495.57 640.23 495.65C638.1 495.77 637.87 495.55 638.9 494.4C639.58 493.63 640 493.03 639.82 493.07C639.64 493.11 638.6 493.48 637.5 493.9Z" fill="#8EA239"/>
<path fill-rule="evenodd" clip-rule="evenodd" d="M433.749 363.25C428.929 366.14 422.229 370.52 418.859 373C415.489 375.48 408.899 381.55 404.209 386.5C399.519 391.45 393.559 398.65 390.979 402.5C388.389 406.35 384.919 412.2 383.249 415.5C381.589 418.8 379.489 423.98 378.579 427C377.679 430.02 377.329 432.05 377.809 431.5C378.289 430.95 381.729 425.77 385.469 420C389.199 414.23 395.079 405.9 398.539 401.5C401.989 397.1 409.019 389.2 414.159 383.95C419.299 378.7 427.769 370.88 432.999 366.57C438.229 362.26 442.689 358.57 442.919 358.37C443.149 358.16 443.149 358 442.919 358C442.689 358 438.559 360.36 433.749 363.25ZM837.499 532.05C831.449 533.68 823.579 535.65 819.999 536.42C816.419 537.2 808.999 538.43 803.499 539.16C797.999 539.89 784.859 540.49 774.299 540.49C763.739 540.5 755.419 540.78 755.799 541.11C756.189 541.45 758.749 542.27 761.499 542.94C764.249 543.61 771.449 544.56 777.499 545.06C784.469 545.63 792.529 545.59 799.499 544.95C805.549 544.4 815.109 542.83 820.749 541.47C826.389 540.11 833.589 537.96 836.749 536.69C839.909 535.42 844.519 533.17 846.999 531.7C849.479 530.22 850.829 529.04 849.999 529.06C849.169 529.08 843.549 530.43 837.499 532.05ZM720.499 778.11C718.849 778.63 715.849 780.28 713.829 781.78C711.809 783.28 708.989 786.08 707.569 788C706.149 789.92 704.479 793.75 703.869 796.5C703.039 800.23 703.059 802.89 703.939 807C704.619 810.22 706.429 814.25 708.309 816.74C710.139 819.17 713.629 822.05 716.499 823.5C720.169 825.35 723.089 826.03 727.499 826.04C730.799 826.04 735.079 825.41 736.999 824.64C738.919 823.86 742.039 821.94 743.919 820.36C745.799 818.79 748.389 815.25 749.659 812.5C751.229 809.12 751.979 805.64 751.989 801.75C751.999 798.59 751.399 794.54 750.669 792.75C749.939 790.96 747.799 787.74 745.919 785.59C744.039 783.43 740.249 780.63 737.499 779.35C734.439 777.92 730.749 777.05 727.999 777.1C725.519 777.14 722.149 777.6 720.499 778.11Z" fill="#432F22"/>
<path fill-rule="evenodd" clip-rule="evenodd" d="M415.14 475.1C413.41 476.7 412.23 478.45 412.5 479C412.77 479.55 413.9 479.77 415 479.5C416.333 479.166 417 479.5 417 480.5C417 481.32 416.21 482.42 415.25 482.92C414.29 483.43 413.88 484.22 414.35 484.67C414.82 485.13 416.98 483.48 419.16 481C421.33 478.52 422.97 475.82 422.79 475C422.62 474.17 421.8 473.5 420.99 473.5C420.17 473.5 419.23 473.21 418.89 472.85C418.56 472.5 416.87 473.51 415.14 475.1ZM395.75 502.53C394.79 503.89 393.66 504.82 393.25 504.6C392.84 504.37 392.5 505.02 392.5 506.03C392.5 507.73 392.69 507.71 394.95 505.69C396.31 504.49 397.99 502.94 398.7 502.25C399.42 501.56 400 500.77 400 500.5C400 500.23 399.44 500.01 398.75 500.03C398.06 500.05 396.71 501.17 395.75 502.53ZM615.35 514.5C615.35 515.07 618.42 515.53 622.43 515.56C626.32 515.6 628.15 515.42 626.5 515.17C623.52 514.71 623.52 514.7 626 514.01C627.53 513.59 625.96 513.36 621.92 513.41C618.27 513.46 615.35 513.94 615.35 514.5Z" fill="#BD9B61"/>
<path fill-rule="evenodd" clip-rule="evenodd" d="M804.999 446.73C806.919 446.94 810.299 446.94 812.499 446.73C814.699 446.51 813.129 446.34 808.999 446.34C804.869 446.34 803.079 446.51 804.999 446.73Z" fill="#728331"/>
<path fill-rule="evenodd" clip-rule="evenodd" d="M591.41 452.25C591.11 452.94 591.01 454.36 591.18 455.41C591.36 456.45 592.17 457.41 593 457.53C594.03 457.68 594.47 456.92 594.41 455.12C594.36 453.68 594.24 452.16 594.16 451.75C594.07 451.34 593.54 451 592.98 451C592.41 451 591.71 451.56 591.41 452.25Z" fill="#8EA239"/>
</svg>
