<svg width="1280" height="1031" viewBox="0 0 1280 1031" fill="none" xmlns="http://www.w3.org/2000/svg">
<path d="M608 156.15C609.37 156.07 611.96 156.91 613.75 158C615.54 159.1 617.269 161.01 617.609 162.25C617.939 163.49 617.599 165.85 616.859 167.5C615.919 169.56 613.62 171.46 609.5 173.57C606.2 175.26 601.92 177.19 600 177.87C598.08 178.54 592 181.56 586.5 184.57C581 187.59 575.6 190.6 574.5 191.28C573.4 191.95 568.68 194.93 564 197.9C559.33 200.87 552.58 205.62 549 208.46C545.42 211.3 540.48 214.99 538 216.66C535.52 218.33 526.97 226.181 518.99 234.101C511.01 242.021 500.699 253.22 496.069 259C491.449 264.77 483.37 276.02 478.12 284C472.87 291.98 465.45 304.57 461.63 312C457.81 319.43 453 329.55 450.95 334.5C448.89 339.45 445.56 348.23 443.55 354C441.54 359.77 438.54 369.9 436.87 376.5C435.21 383.1 432.79 394.35 431.49 401.5C430.2 408.65 428.59 421.25 427.92 429.5C427.17 438.86 426.95 451.65 427.34 463.5C427.68 473.95 428.65 487.45 429.49 493.5C430.33 499.55 431.66 507.87 432.45 512C433.24 516.12 434.83 523.55 435.99 528.5C437.14 533.45 440.13 543.58 442.62 551C445.12 558.42 448.96 568.77 451.17 574C453.38 579.23 457.91 588.67 461.25 595C464.59 601.33 469.679 610.33 472.569 615C475.459 619.67 478.769 624.62 479.939 626C481.109 627.37 482.05 628.84 482.03 629.25C482.01 629.66 484.55 633.04 487.67 636.75C490.78 640.46 493.479 643.729 493.67 644C493.85 644.27 494.34 644.13 494.75 643.67C495.16 643.205 495.73 629.792 496.5 584.88L499 583C500.37 581.96 503.64 580.871 506.25 580.561C509.64 580.161 511.29 579.43 512 578C512.63 576.748 512.91 562.246 512.5 502.391L507.74 496.95C505.13 493.95 502.94 490.82 502.88 490C502.83 489.18 502.88 487.37 502.99 486C503.11 484.62 504.74 480.24 506.6 476.25C508.47 472.26 510 468.1 510 467C510 465.9 509.66 464.831 509.25 464.61C508.84 464.4 508.13 462.26 507.68 459.86C507.23 457.46 506.72 453.02 506.56 450C506.38 446.74 506.999 442.06 508.069 438.5C509.589 433.45 510.95 431.45 516.689 425.86C520.429 422.2 525.3 417.63 531.5 412.16L531.17 404.83C530.99 400.8 531.29 395.7 531.85 393.5C532.41 391.3 533.46 388.93 534.18 388.22C534.91 387.52 537.23 386.85 539.35 386.72C542.57 386.54 543.57 386.99 545.54 389.5C547.6 392.13 547.92 393.781 548.5 413.181L552.5 416.28C554.7 417.98 559.09 421.991 562.25 425.19C565.41 428.38 568.98 432.91 570.17 435.25C571.7 438.23 572.47 441.89 572.76 447.5C573.07 453.57 572.68 457.07 571.17 462C569.23 468.29 569.22 468.63 570.939 472.5C571.919 474.7 573.73 478.75 574.96 481.5C576.42 484.76 577.009 487.54 576.649 489.5C576.339 491.15 574.05 494.86 567 503L567.5 579.5L576.75 579.75C581.84 579.89 586.9 579.55 588 579C589.79 578.1 590 576.98 590.03 568.25C590.06 560.48 590.439 557.89 591.939 555.5C592.969 553.85 595.32 551.28 597.16 549.78C599.15 548.16 602.22 546.84 604.75 546.53C608.33 546.08 609 545.65 609 543.75C609 542.51 608.03 539.48 606.84 537C605.65 534.52 604.12 531.37 603.45 530C602.77 528.62 601.21 523.45 599.979 518.5C598.05 510.78 597.819 507.94 598.359 498.5C598.899 489.06 599.509 486.16 602.689 478C604.729 472.77 608 466.16 609.95 463.3C611.9 460.44 616.87 454.23 621 449.49C625.12 444.76 631.87 438.091 636 434.681C640.12 431.281 645.52 427 648 425.19C650.48 423.37 659.92 417.01 669 411.05C679.48 404.17 687.75 397.9 691.67 393.86C695.07 390.36 698.25 386.37 698.75 385C699.32 383.42 699.26 381.12 698.58 378.771C697.75 375.901 697.85 373.52 699 368.45C700.02 363.99 700.18 361.45 699.5 360.58C698.95 359.87 696.02 357.91 693 356.24C689.98 354.56 685.37 351.011 682.78 348.351C680.18 345.681 676.35 340.14 674.28 336.03C670.62 328.79 670.5 328.22 670.5 318.03C670.5 308.2 670.72 307.05 673.75 300.75C675.54 297.04 679.14 291.7 681.75 288.88C684.36 286.07 689.09 282.47 692.25 280.88C695.7 279.15 700.6 277.7 704.51 277.25C708.089 276.84 711.028 276.73 711.05 277C711.06 277.27 708.25 279.35 704.79 281.61C700.78 284.22 696.96 287.85 694.26 291.61C691.76 295.08 689.55 299.56 688.89 302.5C688.27 305.25 687.95 310.43 688.18 314C688.44 318.05 689.53 322.57 691.1 326C692.47 329.02 695.49 333.41 697.8 335.75C700.11 338.09 704.14 340.961 706.75 342.141C709.87 343.541 714.41 344.45 720 344.79C727.87 345.27 728.99 345.09 735 342.36C738.58 340.73 743.64 337.51 746.25 335.2C748.86 332.89 751.23 331.45 751.5 332C751.77 332.55 750.71 335.59 749.13 338.75C747.43 342.17 744.08 346.47 740.88 349.37C737.92 352.04 733.92 355.02 732 355.99C730.08 356.96 725.91 358.48 722.75 359.37C719.59 360.27 716.771 361.45 716.5 362C716.23 362.55 716.4 365.14 716.89 367.75C717.38 370.36 717.47 374.98 717.09 378C716.48 382.9 716.7 383.94 719.04 387.5C720.49 389.7 723.67 393.3 726.1 395.5C728.53 397.7 732.09 400.71 734.01 402.19C735.93 403.67 740.42 406.93 744 409.44C747.58 411.94 752.19 414.89 754.25 416C756.31 417.1 761.26 420.32 765.25 423.15C769.24 425.98 775.87 431.1 780 434.51C784.12 437.93 789.93 443.37 792.89 446.61C795.86 449.85 800.2 454.98 802.54 458C804.87 461.02 808.4 466.65 810.37 470.5C812.34 474.35 814.859 481.1 815.979 485.5C817.329 490.76 818.03 496.75 818.03 503C818.04 510.27 817.429 514.62 815.439 521.5C814.019 526.45 811.26 533.65 809.33 537.5C807.391 541.349 805.821 544.729 805.83 545C805.84 545.27 806.67 545.811 807.68 546.181C808.68 546.551 810.85 546.89 812.5 546.92C814.15 546.96 817.19 548.12 819.25 549.5C821.31 550.87 823.76 553.46 824.68 555.25C825.77 557.36 826.56 562.07 826.93 568.65C827.24 574.24 827.73 579.031 828 579.311C828.27 579.581 829.17 579.911 830 580.021C830.831 580.14 835.441 580.18 849 580L849.06 502.5L845.03 499.25C842.31 497.06 840.7 494.78 840.08 492.25C839.57 490.19 839.5 487.37 839.93 486C840.36 484.63 842.17 480.12 847.2 468.5L845.41 462.5C844.37 459.01 843.6 453.16 843.58 448.5C843.54 441.93 843.98 439.61 846.02 435.53C847.38 432.8 850.75 428.3 853.5 425.53C856.25 422.76 860.52 418.88 867.5 413.29L868 402.25C868.42 393 868.83 390.861 870.5 389.101C871.6 387.941 873.51 386.77 874.75 386.5C875.99 386.22 878.46 386.851 880.25 387.891C882.04 388.931 883.83 390.841 884.24 392.141C884.64 393.441 884.96 398.552 884.93 412.5L889.63 416.5C892.22 418.7 897.18 423.43 900.67 427C906.42 432.91 907.15 434.14 908.63 440.5C909.71 445.14 910.05 449.36 909.63 453C909.28 456.02 908.239 460.75 905.649 468.5L909.2 476.5C911.16 480.9 913.03 485.51 913.38 486.75C913.72 487.99 913.56 490.46 913.02 492.25C912.48 494.04 910.22 497.3 903.97 503.5L903.979 541.25C904 576.37 904.12 579.03 905.75 579.41C906.71 579.64 909.08 580.07 911 580.38C912.92 580.68 915.74 581.84 920 585L920.05 629.75C920.08 662.33 920.42 675.27 922.5 680.19L931.26 670.84C936.07 665.7 941.1 660.38 942.43 659C943.76 657.63 947.02 653.73 949.68 650.34C952.33 646.95 956.3 641.6 958.5 638.45C960.7 635.3 963.51 631.43 964.75 629.86C966.52 627.61 967.8 627.001 970.75 627.021C972.81 627.021 975 627.361 975.6 627.771C976.21 628.171 977.3 629.63 978.03 631C978.77 632.38 979.28 634.74 979.18 636.25C979.08 637.76 976.47 645.19 973.39 652.75C970.3 660.31 964.63 672.58 960.8 680C956.96 687.42 952.21 696.2 950.24 699.5C948.26 702.8 944.14 709.33 941.08 714C938.01 718.67 932.36 726.77 928.52 732C924.68 737.23 918.659 744.88 915.149 749C911.639 753.13 906.46 759.14 903.63 762.37C900.81 765.6 892.65 773.671 885.5 780.311C878.35 786.941 868.289 795.771 863.149 799.931C858.01 804.1 852.05 808.63 849.92 810C847.78 811.38 842.32 815.03 837.77 818.12C833.22 821.21 825.23 826.2 820 829.2C814.77 832.21 806 836.94 800.5 839.73C795 842.52 784.88 847.05 778 849.8C771.13 852.55 760.55 856.39 754.5 858.34C748.45 860.28 740.13 862.8 736 863.92C731.88 865.04 723.1 867.06 716.5 868.41C709.9 869.75 698.88 871.641 692 872.601C682.9 873.871 672.44 874.37 653.5 874.42C637.88 874.47 623.31 873.99 617 873.21C611.23 872.5 600.2 870.781 592.5 869.391C584.8 868.001 572.65 865.34 565.5 863.49C558.35 861.64 547.1 858.25 540.5 855.95C533.9 853.65 525.58 850.45 522 848.83C518.42 847.21 513.729 845.12 511.569 844.19C509.399 843.26 502.429 839.85 496.069 836.62C489.699 833.39 479.1 827.37 472.5 823.25C465.9 819.12 458.25 814.14 455.5 812.16C452.75 810.19 445.32 804.47 439 799.46C432.68 794.44 422.77 785.88 417 780.42C411.22 774.96 403.57 767.35 399.99 763.5C396.41 759.65 392.03 754.92 390.25 753C388.581 751.2 387.202 749.497 387.045 749.068L387.016 748.932C386.862 748.503 385.521 746.8 383.899 745C382.169 743.08 377.069 736.55 372.56 730.5C368.06 724.45 361.269 714.55 357.479 708.5C353.699 702.45 347.339 691.2 343.359 683.5C339.379 675.8 333.91 664.33 331.2 658C328.49 651.67 323.98 639.75 321.17 631.5C318.36 623.25 314.5 610.2 312.58 602.5C310.66 594.8 308.179 583.33 307.069 577C305.959 570.67 304.6 561.67 304.04 557C303.49 552.33 302.57 540.51 302.02 530.75C301.33 518.81 301.33 507.19 302 495.25C302.56 485.49 303.93 470.98 305.06 463C306.18 455.02 308.25 442.88 309.66 436C311.06 429.13 313.76 418.1 315.64 411.5C317.53 404.9 321.36 393.2 324.16 385.5C326.96 377.8 331.24 367 333.67 361.5C336.11 356 340.84 346.32 344.18 340C347.53 333.68 353.92 322.66 358.38 315.53C362.85 308.4 369.489 298.5 373.149 293.53C376.799 288.56 381.97 281.8 384.63 278.5C387.29 275.2 397.12 264.82 406.479 255.44C415.839 246.06 428.9 234.09 435.5 228.84C442.1 223.58 452.9 215.7 459.5 211.32C466.1 206.94 475.1 201.3 479.5 198.8C483.9 196.3 492.9 191.56 499.5 188.271C506.1 184.981 517.8 179.77 525.5 176.7C533.2 173.63 544.9 169.56 551.5 167.65C558.1 165.75 566.87 163.46 571 162.57C575.12 161.68 583.23 160.09 589 159.021C594.77 157.961 600.85 156.91 602.5 156.69C604.15 156.48 606.62 156.23 608 156.15ZM544.93 188.521C544.61 188.161 543.96 188.28 543.49 188.79C543.01 189.3 540.79 189.99 538.56 190.32C536.33 190.65 532.59 191.83 530.25 192.96C527.91 194.08 525.55 195 525 195C524.45 195 523.21 195.42 522.25 195.94C521.29 196.46 516 198.96 510.5 201.5C505 204.03 498.48 207.31 496 208.78C493.521 210.25 491.231 211.46 490.91 211.471C490.59 211.491 484.519 215.1 477.439 219.5C470.36 223.9 462.971 228.75 461.03 230.271C459.09 231.791 454.35 235.351 450.5 238.181C446.65 241.011 439.9 246.591 435.5 250.561C431.1 254.541 424.3 260.88 420.39 264.65C416.48 268.42 409.73 275.62 405.39 280.65C401.05 285.68 395.86 291.76 393.85 294.15C391.84 296.54 387.61 302.1 384.45 306.5C381.29 310.9 376.99 317.2 374.89 320.5C372.8 323.8 367.74 332.35 363.66 339.5C359.57 346.65 354.11 357.23 351.52 363C348.93 368.77 346.11 375.069 345.24 377C344.38 378.93 341.7 385.9 339.29 392.5C336.89 399.1 333.349 410.35 331.439 417.5C329.529 424.65 326.84 435.9 325.47 442.5C324.09 449.1 322.049 461.48 320.939 470C319.819 478.52 318.65 494.05 318.32 504.5C317.98 515.64 318.2 529.09 318.87 537C319.49 544.42 320.26 552.52 320.57 555C320.88 557.48 321.79 563.55 322.59 568.5C323.39 573.45 325.42 583.8 327.1 591.5C328.78 599.2 332.77 613.38 335.97 623C339.16 632.63 344.75 647.25 348.38 655.5C352.01 663.75 358.4 676.58 362.59 684C366.78 691.42 372.57 701.1 375.46 705.5C378.35 709.9 383.82 717.62 387.61 722.66C391.4 727.69 396.56 733.99 399.07 736.66C401.58 739.32 404.06 742.26 404.57 743.2C405.08 744.13 410.03 749.76 415.57 755.7C421.11 761.64 432.14 771.941 440.07 778.601C448.01 785.251 458.55 793.591 463.5 797.131C468.45 800.681 477 806.391 482.5 809.841C488 813.291 497.68 818.74 504 821.95C510.32 825.17 520.45 829.91 526.5 832.49C532.55 835.06 543.58 839.181 551 841.641C558.42 844.101 569.9 847.421 576.5 849.011C583.1 850.611 593.9 852.8 600.5 853.87C607.1 854.95 619.02 856.391 627 857.061C635.91 857.811 649.21 858.071 661.5 857.721C673.97 857.371 686.58 856.381 695 855.091C702.42 853.941 712.77 852.09 718 850.96C723.23 849.84 729.98 848.2 733 847.32C736.02 846.45 742.77 844.39 748 842.74C753.23 841.1 762.23 837.91 768 835.66C773.77 833.41 785.48 828.081 794 823.801C802.52 819.531 812.47 814.341 816.11 812.271C819.74 810.201 824.47 807.25 826.61 805.73C828.751 804.2 834.511 800.15 839.4 796.73C844.3 793.3 853.07 786.531 858.9 781.681C864.73 776.831 873.33 769.091 878 764.471C882.67 759.861 889.48 752.8 893.13 748.79C896.78 744.78 902.64 737.9 906.16 733.5C909.68 729.1 914.85 722.35 917.65 718.5C920.45 714.65 923.55 709.92 924.52 708C925.49 706.08 927.58 702.92 929.15 701C930.73 699.08 932.01 696.83 932.01 696C932.009 695.171 930.679 696.16 929.01 698.25C927.35 700.31 925.55 702 925 702C924.45 702 919.16 705.771 913.25 710.381C907.34 714.991 896.87 722.461 890 726.98C883.12 731.5 868.95 739.38 858.5 744.49C848.05 749.59 833.65 755.82 826.5 758.33C819.35 760.84 807.2 764.521 799.5 766.511C791.8 768.491 783.92 770.32 782 770.57C780.08 770.82 773.77 771.711 768 772.561C762.23 773.401 749.51 774.521 739.75 775.051C729.99 775.571 720.99 775.79 719.75 775.54C718.51 775.28 712.1 774.82 705.5 774.5C698.9 774.18 690.35 773.46 686.5 772.9C682.65 772.33 674.55 770.97 668.5 769.87C662.45 768.77 651.87 766.29 645 764.36C638.12 762.44 626.65 758.67 619.5 755.99C612.35 753.31 601.77 748.961 595.99 746.311C590.22 743.661 580.09 738.36 573.49 734.53C566.9 730.7 556.55 724.25 550.5 720.2C544.45 716.15 537.92 711.54 536 709.95C534.08 708.36 527.77 703.05 522 698.15C516.23 693.25 506.97 684.57 501.43 678.87C495.89 673.17 488.24 664.67 484.43 659.98C480.62 655.3 476.14 649.67 474.47 647.48C472.8 645.29 468.47 639 464.84 633.5C461.21 628 455.41 618.55 451.95 612.5C448.49 606.45 443.77 597.67 441.46 593C439.15 588.33 435.579 580.23 433.52 575C431.46 569.77 428.03 560.1 425.89 553.5C423.75 546.9 420.44 534.75 418.54 526.5C416.64 518.25 414.38 506.32 413.52 500C412.65 493.68 411.52 481.07 411 472C410.41 461.68 410.41 449.32 410.99 439C411.51 429.93 412.85 415.98 413.979 408C415.1 400.02 417.59 386.75 419.5 378.5C421.42 370.25 424.95 357.65 427.34 350.5C429.74 343.35 434.07 331.88 436.97 325C439.87 318.13 442.579 312.05 442.979 311.5C443.39 310.95 445.92 306.23 448.6 301C451.28 295.77 455.65 287.9 458.3 283.5C460.96 279.1 466.14 271.321 469.81 266.221C473.49 261.111 477.86 255.041 479.53 252.721C481.2 250.401 483.85 247.15 485.42 245.5C486.99 243.85 490.38 240.03 492.96 237C495.54 233.98 500.1 229.03 503.1 226C506.1 222.98 512.59 216.86 517.53 212.42C522.46 207.97 527.62 203.571 529 202.641C530.37 201.711 533.3 199.421 535.5 197.551C537.7 195.681 540.85 193.03 542.5 191.66C544.15 190.29 545.24 188.88 544.93 188.521ZM710.49 640.7C709.39 640.42 707.37 640.52 705.99 640.91C704.62 641.31 700.79 643.161 697.49 645.021C694.19 646.88 689.23 650.68 686.46 653.45C683.69 656.23 680.67 660.08 679.75 662C678.83 663.92 677.61 667.98 677.03 671C676.41 674.22 675.959 691.83 675.939 713.5C675.909 747.59 676.05 750.68 677.7 752.78C679.21 754.69 681.25 755.29 690.49 756.54C696.54 757.36 709.14 758.31 718.49 758.67C730.55 759.13 736.15 758.98 737.74 758.16L739.99 757L739.49 667.33C735.25 661.26 734.02 658.94 734.01 658.25C733.999 657.559 731.86 654.94 729.24 652.431C726.63 649.911 721.79 646.36 718.49 644.53C715.19 642.7 711.591 640.98 710.49 640.7ZM708.189 597C559.693 597 515.078 597.28 513.99 598.2C512.84 599.19 512.63 605.28 512.79 633.2L512.99 667C525.01 678.44 531.87 684.631 535.99 688.131C540.12 691.63 544.229 694.95 545.13 695.5C546.03 696.05 548.4 697.85 550.41 699.5C552.41 701.15 554.369 702.12 554.77 701.66C555.17 701.2 555.75 695.13 556.05 688.16C556.55 676.86 556.92 674.86 559.52 669.5C561.22 666.01 564.95 660.98 568.46 657.46C572.26 653.66 577.27 650.011 581.99 647.601C588.1 644.481 590.14 643.89 592.99 644.41C594.92 644.77 599.42 646.821 602.99 648.971C606.57 651.121 611.94 655.271 614.93 658.19C618.33 661.51 621.52 665.94 623.43 670L626.49 676.5L626.99 740C635.91 743.98 642.32 746.241 646.99 747.591C651.67 748.931 655.94 750.041 656.49 750.051C657.04 750.05 658.06 748.92 658.74 747.53C659.68 745.64 659.99 735.539 659.99 707.75C659.98 677.14 660.26 669.43 661.55 664.5C662.41 661.2 664.31 656.25 665.77 653.5C667.23 650.75 671.82 645.12 675.979 641C682.199 634.83 685.62 632.44 695.3 627.5L707.05 621.5C717.47 625.27 722.07 627.271 723.99 628.381C725.92 629.481 730.19 632.411 733.49 634.881C736.79 637.351 741.41 641.431 743.75 643.94C746.09 646.45 749.34 650.98 750.97 654C752.59 657.02 754.609 662.65 755.439 666.5C756.659 672.1 756.96 681.63 756.979 714.25L756.99 755C760.69 756.49 764.52 756.31 769.99 755.4C774.67 754.62 780.74 753.51 783.49 752.94C786.24 752.36 788.8 751.35 789.17 750.7C789.54 750.038 789.61 736.899 789.32 721.5C789.01 705 789.22 689.6 789.83 684C790.6 676.97 791.64 672.94 793.83 668.5C795.77 664.56 799.02 660.44 803.27 656.5C806.83 653.2 812.73 649.04 816.37 647.25C820.01 645.46 823.89 644 824.99 644C826.091 644 829.581 645.291 832.74 646.881C835.91 648.461 840.73 651.271 843.46 653.131C846.19 654.981 850.38 659.2 852.77 662.5C855.159 665.8 857.84 670.75 858.71 673.5C859.86 677.14 860.46 684.61 860.89 701C861.47 722.72 861.56 723.491 863.49 723.311C864.591 723.2 868.56 721.17 872.31 718.811C876.06 716.441 884.5 710.67 891.07 706C897.77 701.23 903.22 696.62 903.49 695.5C903.75 694.395 903.969 672.457 903.979 646.75C903.99 606.52 903.79 599.79 902.49 598.5C901.17 597.18 878.239 597 708.189 597ZM825.49 662.061C824.39 662.071 822.14 662.79 820.49 663.66C818.84 664.52 815.99 666.64 814.16 668.37C812.32 670.09 809.85 673.3 808.66 675.5C806.6 679.3 806.48 680.96 806.18 709.5C806.01 725.999 806.13 740.958 806.43 742.75C806.81 744.96 807.55 746.001 808.74 746.011C809.711 746.02 814.991 744.42 820.49 742.46C825.99 740.49 833.42 737.45 836.99 735.69L843.49 732.5C843.95 696.08 843.85 683.7 843.55 681.5C843.25 679.3 841.71 675.48 840.12 673C838.53 670.52 835.04 667.051 832.36 665.271C829.681 663.501 826.591 662.051 825.49 662.061ZM591.49 661.99C590.39 661.99 587.46 663.471 584.979 665.271C582.49 667.081 578.759 670.79 576.689 673.53L572.92 678.5L573.01 714.5C578.03 717.86 581.29 719.84 583.49 721.08C585.69 722.32 591.66 725.51 596.74 728.17C601.83 730.83 606.89 733 607.99 733C609.94 733 609.99 732.329 610.01 706.75C610.02 680.86 609.98 680.43 607.55 675.5C605.83 671.99 603.36 669.23 599.29 666.24C596.1 663.89 592.591 661.981 591.49 661.99ZM809.49 563.5C619.059 563.02 607.102 563.17 606.58 564.5C606.26 565.32 606 568.59 606.01 571.75C606.02 574.91 606.36 578.05 606.76 578.73C607.34 579.7 629.29 579.92 708.49 579.73L809.49 579.5V563.5ZM541.16 501.32C536.94 501.22 532.71 501.361 531.76 501.641C530.76 501.921 529.79 503.48 529.47 505.32C529.17 507.07 529.05 524.48 529.21 544L529.49 579.5C548.13 579.98 549.08 579.82 549.99 578C550.62 576.747 550.9 562.377 550.74 539.58C550.61 519.55 550.12 502.79 549.66 502.33C549.2 501.87 545.38 501.42 541.16 501.32ZM876.47 502.98C872.47 502.99 868.691 503.54 867.7 504.25C866.1 505.4 865.99 508.32 866.229 542.5L866.49 579.5H886.49C887 508.12 886.9 505.41 885.26 504.23C884.23 503.49 880.57 502.97 876.47 502.98ZM709.9 403.25C708.6 402.28 707.6 402.641 704.4 405.221C702.26 406.961 698.19 410.43 695.36 412.94C692.53 415.45 683.14 422 674.49 427.5C665.84 433 655.56 440.04 651.63 443.15C647.71 446.26 640.9 452.6 636.5 457.25C632.1 461.89 627.23 467.451 625.68 469.591C624.13 471.741 621.59 476.2 620.04 479.5C618.48 482.8 616.71 487.86 616.11 490.75C615.5 493.64 614.99 499.49 614.979 503.75C614.96 508.81 615.69 513.93 617.07 518.5C618.23 522.35 620.68 528.2 622.51 531.5C624.34 534.8 627.45 539.41 629.42 541.75L633 546H784C791.12 536.31 794.22 531.25 795.479 528.5C796.74 525.75 798.59 520.8 799.6 517.5C800.77 513.65 801.43 508.27 801.45 502.5C801.47 495.59 800.91 491.76 799.03 486C797.67 481.84 794.34 475.16 791.56 471C788.799 466.87 782.909 459.9 778.479 455.5C774.06 451.1 767.75 445.43 764.47 442.9C761.18 440.38 754.45 435.7 749.5 432.521C744.55 429.331 738.7 425.5 736.5 424C734.3 422.5 729.62 419.301 726.1 416.881C722.58 414.471 717.85 410.691 715.6 408.471C713.34 406.251 710.78 403.91 709.9 403.25ZM876.24 475.971L862.979 476L860.99 479.25C859.9 481.04 859.01 483.29 859 484.25C859 485.85 860.52 486.001 876.75 486.021L894.5 486.051C893.27 480.971 892.15 478.701 891.21 477.721C889.73 476.181 887.68 475.941 876.24 475.971ZM552.5 475.54C551.4 475.26 548.02 475.11 545 475.21C541.98 475.31 536.24 475.53 532.25 475.7C525.18 475.99 524.96 476.08 523.39 479.25C521.87 482.31 521.88 482.58 523.64 483.82C525.03 484.81 529.3 485.06 540.67 484.82C549.01 484.64 556.1 484.16 556.42 483.75C556.74 483.339 556.44 481.44 555.75 479.53C555.04 477.56 553.63 475.84 552.5 475.54ZM876.62 429C875.31 429 872.2 430.69 869.7 432.75C867.21 434.81 864.131 437.85 862.86 439.5C861.41 441.39 860.4 444.35 860.12 447.5C859.85 450.53 860.24 453.79 861.09 455.79L862.5 459.08C890.5 459 891.04 458.92 892.14 456.75C892.87 455.32 893.05 452.21 892.64 448.25C892.29 444.81 891.55 441.1 891 440C890.45 438.9 887.52 435.98 884.5 433.5C881.41 430.97 877.96 429 876.62 429ZM539.99 428.971C539.15 428.991 535.78 430.941 532.49 433.301C528.81 435.951 525.83 439.031 524.75 441.301C523.79 443.341 523 447.25 523 450C523 453.67 523.53 455.53 525 457C526.8 458.8 528.33 459 540.5 459H554C556.33 453.57 557 450.65 557 449C557 447.35 556.519 444.76 555.939 443.25C555.349 441.74 553.659 439.2 552.189 437.62C550.709 436.04 547.7 433.441 545.5 431.841C543.3 430.251 540.821 428.961 539.99 428.971Z" fill="#CBA361"/>
</svg>
